{"glyphs":{"0":{"ha":1015,"x_min":0,"x_max":0,"o":"m 441 -22 b 75 547 184 -9 26 227 b 631 1110 125 871 364 1122 b 993 541 872 1100 1045 882 b 441 -22 943 216 714 -35 m 478 262 b 697 543 578 258 665 371 b 590 827 728 709 688 823 b 371 546 489 831 404 716 b 478 262 338 376 381 266 "},"1":{"ha":537,"x_min":0,"x_max":0,"o":"m 576 1100 l 363 0 l 66 0 l 213 758 l 111 732 l 166 1018 l 496 1100 "},"2":{"ha":950,"x_min":0,"x_max":0,"o":"m 951 718 b 559 267 924 549 783 370 l 876 267 l 823 0 l -32 0 l -8 112 b 651 706 455 442 629 583 b 535 842 665 784 616 842 b 339 667 443 842 357 770 l 130 745 b 578 1116 172 987 366 1116 b 951 718 837 1116 984 930 "},"3":{"ha":885,"x_min":0,"x_max":0,"o":"m 856 817 b 705 621 840 732 784 655 b 824 337 792 580 850 481 b 388 -17 786 124 597 -17 b 25 291 155 -17 20 154 l 279 349 b 399 254 287 290 343 254 b 531 373 464 254 518 300 b 327 541 546 463 485 540 l 384 670 b 564 787 483 670 553 724 b 496 870 574 838 541 870 b 397 799 460 870 421 850 l 168 852 b 547 1128 230 1040 382 1128 b 856 817 757 1128 888 986 "},"4":{"ha":1019,"x_min":0,"x_max":0,"o":"m 948 191 l 848 191 l 811 0 l 515 0 l 552 191 l -28 191 l 497 1099 l 814 1098 l 446 450 l 602 450 l 649 689 l 945 689 l 899 450 l 999 450 "},"5":{"ha":899,"x_min":0,"x_max":0,"o":"m 553 749 b 844 374 758 749 875 590 b 390 -17 809 133 615 -17 b 13 228 212 -17 64 75 l 258 332 b 399 250 277 283 335 250 b 549 385 481 250 538 306 b 413 516 560 466 514 516 b 249 444 363 516 307 504 l 106 515 l 300 1094 l 884 1094 l 833 835 l 458 835 l 418 718 b 553 749 457 739 503 749 "},"6":{"ha":912,"x_min":0,"x_max":0,"o":"m 578 699 b 852 347 741 699 878 561 b 410 -21 825 127 643 -21 b 48 410 126 -21 2 196 b 519 1093 85 557 159 671 l 866 1093 l 542 696 b 578 699 553 698 566 699 m 568 370 b 466 498 579 448 532 498 b 334 368 396 497 343 438 b 437 243 323 293 370 243 b 568 370 511 243 558 304 "},"7":{"ha":828,"x_min":0,"x_max":0,"o":"m 947 1093 l 937 1043 l 338 0 l 12 0 l 472 827 l 110 827 l 162 1093 "},"8":{"ha":908,"x_min":0,"x_max":0,"o":"m 395 -22 b 35 338 146 -22 -1 140 b 284 618 59 479 168 593 b 187 823 230 635 172 711 b 575 1116 210 985 369 1116 b 883 820 792 1116 909 970 b 704 618 865 721 785 632 b 845 331 777 596 871 499 b 395 -22 814 124 629 -22 m 517 696 b 620 790 571 696 612 736 b 543 881 629 846 594 881 b 438 791 489 881 447 844 b 517 696 429 732 466 696 m 429 237 b 572 366 503 237 562 288 b 468 497 583 441 539 497 b 318 364 393 497 330 435 b 429 237 307 294 350 237 "},"9":{"ha":913,"x_min":0,"x_max":0,"o":"m 557 1114 b 918 683 840 1114 970 896 b 448 0 882 536 807 422 l 101 0 l 425 397 b 389 394 412 395 401 394 b 115 747 226 394 89 532 b 557 1114 142 966 323 1114 m 633 724 b 529 850 643 800 596 850 b 399 724 456 850 409 789 b 500 595 388 646 435 595 b 633 724 570 596 623 654 "}," ":{"ha":424,"x_min":0,"x_max":0,"o":""},"A":{"ha":1141,"x_min":0,"x_max":0,"o":"m 720 127 l 349 127 l 275 0 l -65 0 l 627 1107 l 784 1107 l 1047 0 l 745 0 m 677 340 l 625 607 l 471 340 "},"a":{"ha":1141,"x_min":0,"x_max":0,"o":"m 745 0 l 1047 0 l 784 1107 l 627 1107 l -65 0 l 275 0 l 349 127 l 720 127 m 471 340 l 625 607 l 677 340 "},"Á":{"ha":1141,"x_min":0,"x_max":0,"o":"m 732 1183 l 549 1183 l 710 1412 l 937 1412 m 720 127 l 349 127 l 275 0 l -65 0 l 627 1107 l 784 1107 l 1047 0 l 745 0 m 677 340 l 625 607 l 471 340 "},"á":{"ha":1141,"x_min":0,"x_max":0,"o":"m 937 1412 l 710 1412 l 549 1183 l 732 1183 m 745 0 l 1047 0 l 784 1107 l 627 1107 l -65 0 l 275 0 l 349 127 l 720 127 m 471 340 l 625 607 l 677 340 "},"Ă":{"ha":1141,"x_min":0,"x_max":0,"o":"m 730 1189 b 543 1393 600 1189 522 1282 l 673 1393 b 746 1302 663 1341 696 1302 b 850 1393 798 1302 840 1339 l 981 1393 b 730 1189 958 1270 861 1189 m 720 127 l 349 127 l 275 0 l -65 0 l 627 1107 l 784 1107 l 1047 0 l 745 0 m 677 340 l 625 607 l 471 340 "},"ă":{"ha":1141,"x_min":0,"x_max":0,"o":"m 730 1189 b 981 1393 861 1189 958 1270 l 850 1393 b 746 1302 840 1339 798 1302 b 673 1393 696 1302 663 1341 l 543 1393 b 730 1189 522 1282 600 1189 m 745 0 l 1047 0 l 784 1107 l 627 1107 l -65 0 l 275 0 l 349 127 l 720 127 m 471 340 l 625 607 l 677 340 "},"Â":{"ha":1141,"x_min":0,"x_max":0,"o":"m 653 1193 l 437 1193 l 686 1392 l 834 1392 l 1010 1193 l 815 1193 l 750 1276 m 720 127 l 349 127 l 275 0 l -65 0 l 627 1107 l 784 1107 l 1047 0 l 745 0 m 677 340 l 625 607 l 471 340 "},"â":{"ha":1141,"x_min":0,"x_max":0,"o":"m 750 1276 l 815 1193 l 1010 1193 l 834 1392 l 686 1392 l 437 1193 l 653 1193 m 745 0 l 1047 0 l 784 1107 l 627 1107 l -65 0 l 275 0 l 349 127 l 720 127 m 471 340 l 625 607 l 677 340 "},"Ä":{"ha":1141,"x_min":0,"x_max":0,"o":"m 560 1194 b 478 1287 506 1194 468 1236 b 596 1381 488 1337 542 1381 b 677 1287 650 1381 688 1337 b 560 1194 667 1236 614 1194 m 887 1194 b 806 1287 833 1194 795 1236 b 923 1381 815 1337 869 1381 b 1005 1287 977 1381 1015 1337 b 887 1194 995 1236 941 1194 m 720 127 l 349 127 l 275 0 l -65 0 l 627 1107 l 784 1107 l 1047 0 l 745 0 m 677 340 l 625 607 l 471 340 "},"ä":{"ha":1141,"x_min":0,"x_max":0,"o":"m 560 1194 b 677 1287 614 1194 667 1236 b 596 1381 688 1337 650 1381 b 478 1287 542 1381 488 1337 b 560 1194 468 1236 506 1194 m 887 1194 b 1005 1287 941 1194 995 1236 b 923 1381 1015 1337 977 1381 b 806 1287 869 1381 815 1337 b 887 1194 795 1236 833 1194 m 745 0 l 1047 0 l 784 1107 l 627 1107 l -65 0 l 275 0 l 349 127 l 720 127 m 471 340 l 625 607 l 677 340 "},"À":{"ha":1141,"x_min":0,"x_max":0,"o":"m 694 1183 l 577 1412 l 804 1412 l 876 1183 m 720 127 l 349 127 l 275 0 l -65 0 l 627 1107 l 784 1107 l 1047 0 l 745 0 m 677 340 l 625 607 l 471 340 "},"à":{"ha":1141,"x_min":0,"x_max":0,"o":"m 876 1183 l 804 1412 l 577 1412 l 694 1183 m 745 0 l 1047 0 l 784 1107 l 627 1107 l -65 0 l 275 0 l 349 127 l 720 127 m 471 340 l 625 607 l 677 340 "},"Ā":{"ha":1141,"x_min":0,"x_max":0,"o":"m 951 1221 l 507 1221 l 533 1358 l 978 1358 m 720 127 l 349 127 l 275 0 l -65 0 l 627 1107 l 784 1107 l 1047 0 l 745 0 m 677 340 l 625 607 l 471 340 "},"ā":{"ha":1141,"x_min":0,"x_max":0,"o":"m 978 1358 l 533 1358 l 507 1221 l 951 1221 m 745 0 l 1047 0 l 784 1107 l 627 1107 l -65 0 l 275 0 l 349 127 l 720 127 m 471 340 l 625 607 l 677 340 "},"Ą":{"ha":1141,"x_min":0,"x_max":0,"o":"m 1060 -372 b 929 -387 1012 -382 968 -387 b 711 -218 787 -387 711 -323 b 857 0 711 -123 773 -43 l 745 0 l 720 127 l 349 127 l 275 0 l -65 0 l 627 1107 l 784 1107 l 1047 0 b 913 -157 954 -69 913 -111 b 953 -201 913 -180 925 -201 b 1034 -189 968 -201 998 -197 m 677 340 l 625 607 l 471 340 "},"ą":{"ha":1141,"x_min":0,"x_max":0,"o":"m 1034 -189 b 953 -201 998 -197 968 -201 b 913 -157 925 -201 913 -180 b 1047 0 913 -111 954 -69 l 784 1107 l 627 1107 l -65 0 l 275 0 l 349 127 l 720 127 l 745 0 l 857 0 b 711 -218 773 -43 711 -123 b 929 -387 711 -323 787 -387 b 1060 -372 968 -387 1012 -382 m 471 340 l 625 607 l 677 340 "},"Å":{"ha":1141,"x_min":0,"x_max":0,"o":"m 722 1158 b 583 1316 627 1158 568 1229 b 775 1475 599 1407 682 1475 b 911 1316 865 1475 927 1408 b 722 1158 897 1230 817 1158 m 687 1315 b 736 1257 681 1283 702 1257 b 808 1315 770 1257 802 1282 b 759 1374 814 1348 793 1374 b 687 1315 725 1374 693 1349 m 720 127 l 349 127 l 275 0 l -65 0 l 627 1107 l 784 1107 l 1047 0 l 745 0 m 677 340 l 625 607 l 471 340 "},"å":{"ha":1141,"x_min":0,"x_max":0,"o":"m 722 1158 b 911 1316 817 1158 897 1230 b 775 1475 927 1408 865 1475 b 583 1316 682 1475 599 1407 b 722 1158 568 1229 627 1158 m 687 1315 b 759 1374 693 1349 725 1374 b 808 1315 793 1374 814 1348 b 736 1257 802 1282 770 1257 b 687 1315 702 1257 681 1283 m 745 0 l 1047 0 l 784 1107 l 627 1107 l -65 0 l 275 0 l 349 127 l 720 127 m 471 340 l 625 607 l 677 340 "},"Ã":{"ha":1141,"x_min":0,"x_max":0,"o":"m 639 1284 b 553 1200 600 1284 572 1246 l 428 1240 b 654 1422 484 1382 577 1422 b 853 1335 768 1422 793 1335 b 940 1419 891 1335 920 1372 l 1064 1378 b 838 1196 1006 1233 911 1196 b 639 1284 724 1196 699 1284 m 784 1107 l 1047 0 l 745 0 l 720 127 l 349 127 l 275 0 l -65 0 l 627 1107 m 677 340 l 625 607 l 471 340 "},"ã":{"ha":1141,"x_min":0,"x_max":0,"o":"m 639 1284 b 838 1196 699 1284 724 1196 b 1064 1378 911 1196 1006 1233 l 940 1419 b 853 1335 920 1372 891 1335 b 654 1422 793 1335 768 1422 b 428 1240 577 1422 484 1382 l 553 1200 b 639 1284 572 1246 600 1284 m 627 1107 l -65 0 l 275 0 l 349 127 l 720 127 l 745 0 l 1047 0 l 784 1107 m 471 340 l 625 607 l 677 340 "},"Æ":{"ha":1461,"x_min":0,"x_max":0,"o":"m 1090 823 l 1061 671 l 1372 671 l 1325 429 l 1014 429 l 983 272 l 1368 272 l 1315 0 l 634 0 l 665 157 l 375 157 l 273 0 l -65 0 l 649 1093 l 1527 1093 l 1474 823 m 711 399 l 789 800 l 531 399 "},"æ":{"ha":1461,"x_min":0,"x_max":0,"o":"m 1474 823 l 1527 1093 l 649 1093 l -65 0 l 273 0 l 375 157 l 665 157 l 634 0 l 1315 0 l 1368 272 l 983 272 l 1014 429 l 1325 429 l 1372 671 l 1061 671 l 1090 823 m 531 399 l 789 800 l 711 399 "},"B":{"ha":941,"x_min":0,"x_max":0,"o":"m 717 616 b 897 330 823 614 925 509 b 473 0 867 143 709 0 l 16 0 l 229 1093 l 588 1093 b 869 808 782 1093 897 972 b 717 616 852 705 790 632 m 610 753 b 517 841 620 804 585 841 l 469 841 l 436 669 l 486 669 b 610 753 539 669 597 688 m 616 361 b 512 471 630 426 585 471 l 397 471 l 357 264 l 469 264 b 616 361 553 264 605 303 "},"b":{"ha":941,"x_min":0,"x_max":0,"o":"m 717 616 b 869 808 790 632 852 705 b 588 1093 897 972 782 1093 l 229 1093 l 16 0 l 473 0 b 897 330 709 0 867 143 b 717 616 925 509 823 614 m 610 753 b 486 669 597 688 539 669 l 436 669 l 469 841 l 517 841 b 610 753 585 841 620 804 m 616 361 b 469 264 605 303 553 264 l 357 264 l 397 471 l 512 471 b 616 361 585 471 630 426 "},"C":{"ha":1053,"x_min":0,"x_max":0,"o":"m 545 -24 b 78 560 208 -24 27 241 b 753 1116 137 935 473 1139 b 1116 897 905 1103 1046 1021 l 905 705 b 688 838 844 797 773 838 b 376 559 545 838 410 724 b 591 252 343 397 422 252 b 834 352 674 252 753 288 l 964 123 b 545 -24 847 26 687 -24 "},"c":{"ha":1053,"x_min":0,"x_max":0,"o":"m 545 -24 b 964 123 687 -24 847 26 l 834 352 b 591 252 753 288 674 252 b 376 559 422 252 343 397 b 688 838 410 724 545 838 b 905 705 773 838 844 797 l 1116 897 b 753 1116 1046 1021 905 1103 b 78 560 473 1139 137 935 b 545 -24 27 241 208 -24 "},"Ć":{"ha":1053,"x_min":0,"x_max":0,"o":"m 525 1183 l 686 1412 l 913 1412 l 707 1183 m 545 -24 b 78 560 208 -24 27 241 b 753 1116 137 935 473 1139 b 1116 897 905 1103 1046 1021 l 905 705 b 688 838 844 797 773 838 b 376 559 545 838 410 724 b 591 252 343 397 422 252 b 834 352 674 252 753 288 l 964 123 b 545 -24 847 26 687 -24 "},"ć":{"ha":1053,"x_min":0,"x_max":0,"o":"m 707 1183 l 913 1412 l 686 1412 l 525 1183 m 545 -24 b 964 123 687 -24 847 26 l 834 352 b 591 252 753 288 674 252 b 376 559 422 252 343 397 b 688 838 410 724 545 838 b 905 705 773 838 844 797 l 1116 897 b 753 1116 1046 1021 905 1103 b 78 560 473 1139 137 935 b 545 -24 27 241 208 -24 "},"Č":{"ha":1053,"x_min":0,"x_max":0,"o":"m 775 1193 l 627 1193 l 452 1392 l 646 1392 l 711 1309 l 808 1392 l 1025 1392 m 545 -24 b 78 560 208 -24 27 241 b 753 1116 137 935 473 1139 b 1116 897 905 1103 1046 1021 l 905 705 b 688 838 844 797 773 838 b 376 559 545 838 410 724 b 591 252 343 397 422 252 b 834 352 674 252 753 288 l 964 123 b 545 -24 847 26 687 -24 "},"č":{"ha":1053,"x_min":0,"x_max":0,"o":"m 1025 1392 l 808 1392 l 711 1309 l 646 1392 l 452 1392 l 627 1193 l 775 1193 m 545 -24 b 964 123 687 -24 847 26 l 834 352 b 591 252 753 288 674 252 b 376 559 422 252 343 397 b 688 838 410 724 545 838 b 905 705 773 838 844 797 l 1116 897 b 753 1116 1046 1021 905 1103 b 78 560 473 1139 137 935 b 545 -24 27 241 208 -24 "},"Ç":{"ha":1053,"x_min":0,"x_max":0,"o":"m 964 123 b 587 -22 859 35 718 -14 l 553 -59 b 569 -58 559 -59 563 -58 b 667 -174 630 -58 673 -109 b 348 -389 656 -286 511 -391 l 294 -233 b 480 -180 425 -233 477 -210 b 440 -149 481 -169 476 -149 b 407 -154 431 -149 420 -151 l 378 -113 l 463 -18 b 78 560 180 21 31 267 b 753 1116 137 935 473 1139 b 1116 897 905 1103 1046 1021 l 905 705 b 688 838 844 797 773 838 b 376 559 545 838 410 724 b 591 252 343 397 422 252 b 834 352 674 252 753 288 l 964 123 "},"ç":{"ha":1053,"x_min":0,"x_max":0,"o":"m 964 123 l 834 352 b 591 252 753 288 674 252 b 376 559 422 252 343 397 b 688 838 410 724 545 838 b 905 705 773 838 844 797 l 1116 897 b 753 1116 1046 1021 905 1103 b 78 560 473 1139 137 935 b 463 -18 31 267 180 21 l 378 -113 l 407 -154 b 440 -149 420 -151 431 -149 b 480 -180 476 -149 481 -169 b 294 -233 477 -210 425 -233 l 348 -389 b 667 -174 511 -391 656 -286 b 569 -58 673 -109 630 -58 b 553 -59 563 -58 559 -59 l 587 -22 b 964 123 718 -14 859 35 "},"Ċ":{"ha":1053,"x_min":0,"x_max":0,"o":"m 699 1193 b 605 1299 635 1193 593 1241 b 741 1409 616 1358 677 1409 b 835 1300 804 1409 846 1358 b 699 1193 823 1240 761 1193 m 545 -24 b 78 560 208 -24 27 241 b 753 1116 137 935 473 1139 b 1116 897 905 1103 1046 1021 l 905 705 b 688 838 844 797 773 838 b 376 559 545 838 410 724 b 591 252 343 397 422 252 b 834 352 674 252 753 288 l 964 123 b 545 -24 847 26 687 -24 "},"ċ":{"ha":1053,"x_min":0,"x_max":0,"o":"m 699 1193 b 835 1300 761 1193 823 1240 b 741 1409 846 1358 804 1409 b 605 1299 677 1409 616 1358 b 699 1193 593 1241 635 1193 m 545 -24 b 964 123 687 -24 847 26 l 834 352 b 591 252 753 288 674 252 b 376 559 422 252 343 397 b 688 838 410 724 545 838 b 905 705 773 838 844 797 l 1116 897 b 753 1116 1046 1021 905 1103 b 78 560 473 1139 137 935 b 545 -24 27 241 208 -24 "},"D":{"ha":1076,"x_min":0,"x_max":0,"o":"m 585 1093 b 1053 545 814 1094 1104 960 b 373 0 987 0 460 0 l 16 0 l 229 1093 l 585 1093 m 755 547 b 524 822 781 724 675 822 l 471 822 l 365 273 l 420 273 b 755 547 547 273 727 338 "},"d":{"ha":1076,"x_min":0,"x_max":0,"o":"m 585 1093 l 229 1093 l 16 0 l 373 0 b 1053 545 460 0 987 0 b 585 1093 1104 960 814 1094 m 755 547 b 420 273 727 338 547 273 l 365 273 l 471 822 l 524 822 b 755 547 675 822 781 724 "},"Ð":{"ha":1120,"x_min":0,"x_max":0,"o":"m 629 1093 b 1098 545 859 1094 1148 960 b 417 0 1031 0 505 0 l 60 0 l 149 454 l 38 454 l 72 630 l 182 630 l 273 1093 l 629 1093 m 800 547 b 568 822 825 724 720 822 l 516 822 l 479 629 l 598 629 l 564 454 l 444 454 l 410 273 l 465 273 b 800 547 592 273 772 338 "},"ð":{"ha":1120,"x_min":0,"x_max":0,"o":"m 629 1093 l 273 1093 l 182 630 l 72 630 l 38 454 l 149 454 l 60 0 l 417 0 b 1098 545 505 0 1031 0 b 629 1093 1148 960 859 1094 m 800 547 b 465 273 772 338 592 273 l 410 273 l 444 454 l 564 454 l 598 629 l 479 629 l 516 822 l 568 822 b 800 547 720 822 825 724 "},"Ď":{"ha":1076,"x_min":0,"x_max":0,"o":"m 618 1193 l 444 1392 l 638 1392 l 703 1309 l 800 1392 l 1017 1392 l 767 1193 m 585 1093 b 1053 545 814 1094 1104 960 b 373 0 987 0 460 0 l 16 0 l 229 1093 l 585 1093 m 755 547 b 524 822 781 724 675 822 l 471 822 l 365 273 l 420 273 b 755 547 547 273 727 338 "},"ď":{"ha":1076,"x_min":0,"x_max":0,"o":"m 767 1193 l 1017 1392 l 800 1392 l 703 1309 l 638 1392 l 444 1392 l 618 1193 m 585 1093 l 229 1093 l 16 0 l 373 0 b 1053 545 460 0 987 0 b 585 1093 1104 960 814 1094 m 755 547 b 420 273 727 338 547 273 l 365 273 l 471 822 l 524 822 b 755 547 675 822 781 724 "},"Đ":{"ha":1120,"x_min":0,"x_max":0,"o":"m 629 1093 b 1098 545 859 1094 1148 960 b 417 0 1031 0 505 0 l 60 0 l 149 454 l 38 454 l 72 630 l 182 630 l 273 1093 l 629 1093 m 800 547 b 568 822 825 724 720 822 l 516 822 l 479 629 l 598 629 l 564 454 l 444 454 l 410 273 l 465 273 b 800 547 592 273 772 338 "},"đ":{"ha":1120,"x_min":0,"x_max":0,"o":"m 629 1093 l 273 1093 l 182 630 l 72 630 l 38 454 l 149 454 l 60 0 l 417 0 b 1098 545 505 0 1031 0 b 629 1093 1148 960 859 1094 m 800 547 b 465 273 772 338 592 273 l 410 273 l 444 454 l 564 454 l 598 629 l 479 629 l 516 822 l 568 822 b 800 547 720 822 825 724 "},"E":{"ha":843,"x_min":0,"x_max":0,"o":"m 473 823 l 443 671 l 754 671 l 707 429 l 396 429 l 366 272 l 750 272 l 697 0 l 16 0 l 229 1093 l 909 1093 l 857 823 "},"e":{"ha":843,"x_min":0,"x_max":0,"o":"m 857 823 l 909 1093 l 229 1093 l 16 0 l 697 0 l 750 272 l 366 272 l 396 429 l 707 429 l 754 671 l 443 671 l 473 823 "},"É":{"ha":843,"x_min":0,"x_max":0,"o":"m 583 1183 l 401 1183 l 562 1412 l 789 1412 m 473 823 l 443 671 l 754 671 l 707 429 l 396 429 l 366 272 l 750 272 l 697 0 l 16 0 l 229 1093 l 909 1093 l 857 823 "},"é":{"ha":843,"x_min":0,"x_max":0,"o":"m 789 1412 l 562 1412 l 401 1183 l 583 1183 m 857 823 l 909 1093 l 229 1093 l 16 0 l 697 0 l 750 272 l 366 272 l 396 429 l 707 429 l 754 671 l 443 671 l 473 823 "},"Ĕ":{"ha":843,"x_min":0,"x_max":0,"o":"m 581 1189 b 395 1393 452 1189 374 1282 l 525 1393 b 597 1302 515 1341 547 1302 b 702 1393 649 1302 692 1339 l 832 1393 b 581 1189 809 1270 713 1189 m 473 823 l 443 671 l 754 671 l 707 429 l 396 429 l 366 272 l 750 272 l 697 0 l 16 0 l 229 1093 l 909 1093 l 857 823 "},"ĕ":{"ha":843,"x_min":0,"x_max":0,"o":"m 581 1189 b 832 1393 713 1189 809 1270 l 702 1393 b 597 1302 692 1339 649 1302 b 525 1393 547 1302 515 1341 l 395 1393 b 581 1189 374 1282 452 1189 m 857 823 l 909 1093 l 229 1093 l 16 0 l 697 0 l 750 272 l 366 272 l 396 429 l 707 429 l 754 671 l 443 671 l 473 823 "},"Ě":{"ha":843,"x_min":0,"x_max":0,"o":"m 502 1193 l 327 1392 l 522 1392 l 587 1309 l 684 1392 l 900 1392 l 650 1193 m 473 823 l 443 671 l 754 671 l 707 429 l 396 429 l 366 272 l 750 272 l 697 0 l 16 0 l 229 1093 l 909 1093 l 857 823 "},"ě":{"ha":843,"x_min":0,"x_max":0,"o":"m 650 1193 l 900 1392 l 684 1392 l 587 1309 l 522 1392 l 327 1392 l 502 1193 m 857 823 l 909 1093 l 229 1093 l 16 0 l 697 0 l 750 272 l 366 272 l 396 429 l 707 429 l 754 671 l 443 671 l 473 823 "},"Ê":{"ha":843,"x_min":0,"x_max":0,"o":"m 505 1193 l 288 1193 l 537 1392 l 686 1392 l 861 1193 l 667 1193 l 602 1276 m 473 823 l 443 671 l 754 671 l 707 429 l 396 429 l 366 272 l 750 272 l 697 0 l 16 0 l 229 1093 l 909 1093 l 857 823 "},"ê":{"ha":843,"x_min":0,"x_max":0,"o":"m 602 1276 l 667 1193 l 861 1193 l 686 1392 l 537 1392 l 288 1193 l 505 1193 m 857 823 l 909 1093 l 229 1093 l 16 0 l 697 0 l 750 272 l 366 272 l 396 429 l 707 429 l 754 671 l 443 671 l 473 823 "},"Ë":{"ha":843,"x_min":0,"x_max":0,"o":"m 412 1194 b 330 1287 357 1194 319 1236 b 448 1381 340 1337 393 1381 b 529 1287 502 1381 539 1337 b 412 1194 519 1236 466 1194 m 739 1194 b 657 1287 684 1194 647 1236 b 774 1381 667 1337 720 1381 b 857 1287 829 1381 866 1337 b 739 1194 846 1236 793 1194 m 473 823 l 443 671 l 754 671 l 707 429 l 396 429 l 366 272 l 750 272 l 697 0 l 16 0 l 229 1093 l 909 1093 l 857 823 "},"ë":{"ha":843,"x_min":0,"x_max":0,"o":"m 412 1194 b 529 1287 466 1194 519 1236 b 448 1381 539 1337 502 1381 b 330 1287 393 1381 340 1337 b 412 1194 319 1236 357 1194 m 739 1194 b 857 1287 793 1194 846 1236 b 774 1381 866 1337 829 1381 b 657 1287 720 1381 667 1337 b 739 1194 647 1236 684 1194 m 857 823 l 909 1093 l 229 1093 l 16 0 l 697 0 l 750 272 l 366 272 l 396 429 l 707 429 l 754 671 l 443 671 l 473 823 "},"Ė":{"ha":843,"x_min":0,"x_max":0,"o":"m 574 1193 b 480 1299 510 1193 469 1241 b 616 1409 491 1358 553 1409 b 710 1300 679 1409 721 1358 b 574 1193 699 1240 636 1193 m 473 823 l 443 671 l 754 671 l 707 429 l 396 429 l 366 272 l 750 272 l 697 0 l 16 0 l 229 1093 l 909 1093 l 857 823 "},"ė":{"ha":843,"x_min":0,"x_max":0,"o":"m 574 1193 b 710 1300 636 1193 699 1240 b 616 1409 721 1358 679 1409 b 480 1299 553 1409 491 1358 b 574 1193 469 1241 510 1193 m 857 823 l 909 1093 l 229 1093 l 16 0 l 697 0 l 750 272 l 366 272 l 396 429 l 707 429 l 754 671 l 443 671 l 473 823 "},"È":{"ha":843,"x_min":0,"x_max":0,"o":"m 545 1183 l 428 1412 l 655 1412 l 727 1183 m 473 823 l 443 671 l 754 671 l 707 429 l 396 429 l 366 272 l 750 272 l 697 0 l 16 0 l 229 1093 l 909 1093 l 857 823 "},"è":{"ha":843,"x_min":0,"x_max":0,"o":"m 727 1183 l 655 1412 l 428 1412 l 545 1183 m 857 823 l 909 1093 l 229 1093 l 16 0 l 697 0 l 750 272 l 366 272 l 396 429 l 707 429 l 754 671 l 443 671 l 473 823 "},"Ē":{"ha":843,"x_min":0,"x_max":0,"o":"m 802 1221 l 357 1221 l 384 1358 l 829 1358 m 473 823 l 443 671 l 754 671 l 707 429 l 396 429 l 366 272 l 750 272 l 697 0 l 16 0 l 229 1093 l 909 1093 l 857 823 "},"ē":{"ha":843,"x_min":0,"x_max":0,"o":"m 829 1358 l 384 1358 l 357 1221 l 802 1221 m 857 823 l 909 1093 l 229 1093 l 16 0 l 697 0 l 750 272 l 366 272 l 396 429 l 707 429 l 754 671 l 443 671 l 473 823 "},"Ę":{"ha":843,"x_min":0,"x_max":0,"o":"m 473 823 l 443 671 l 754 671 l 707 429 l 396 429 l 366 272 l 750 272 l 697 0 l 672 0 b 547 -151 585 -65 547 -105 b 587 -195 547 -174 559 -195 b 667 -182 602 -195 632 -191 l 694 -365 b 563 -380 646 -375 602 -380 b 345 -211 421 -380 345 -317 b 477 0 345 -121 401 -44 l 16 0 l 229 1093 l 909 1093 l 857 823 "},"ę":{"ha":843,"x_min":0,"x_max":0,"o":"m 857 823 l 909 1093 l 229 1093 l 16 0 l 477 0 b 345 -211 401 -44 345 -121 b 563 -380 345 -317 421 -380 b 694 -365 602 -380 646 -375 l 667 -182 b 587 -195 632 -191 602 -195 b 547 -151 559 -195 547 -174 b 672 0 547 -105 585 -65 l 697 0 l 750 272 l 366 272 l 396 429 l 707 429 l 754 671 l 443 671 l 473 823 "},"F":{"ha":805,"x_min":0,"x_max":0,"o":"m 472 823 l 438 646 l 749 646 l 702 404 l 391 404 l 312 -1 l 16 -1 l 229 1096 l 910 1096 l 857 823 "},"f":{"ha":805,"x_min":0,"x_max":0,"o":"m 857 823 l 910 1096 l 229 1096 l 16 -1 l 312 -1 l 391 404 l 702 404 l 749 646 l 438 646 l 472 823 "},"G":{"ha":1207,"x_min":0,"x_max":0,"o":"m 1192 628 b 1182 522 1191 588 1187 553 b 557 -26 1127 209 892 -26 b 76 549 216 -26 25 216 b 753 1115 131 911 429 1124 b 1098 941 910 1109 1031 1028 l 895 721 b 690 845 849 787 789 845 b 372 549 551 845 406 729 b 597 247 338 363 450 247 b 836 412 733 247 819 355 l 614 412 l 656 628 "},"g":{"ha":1207,"x_min":0,"x_max":0,"o":"m 656 628 l 614 412 l 836 412 b 597 247 819 355 733 247 b 372 549 450 247 338 363 b 690 845 406 729 551 845 b 895 721 789 845 849 787 l 1098 941 b 753 1115 1031 1028 910 1109 b 76 549 429 1124 131 911 b 557 -26 25 216 216 -26 b 1182 522 892 -26 1127 209 b 1192 628 1187 553 1191 588 "},"Ğ":{"ha":1207,"x_min":0,"x_max":0,"o":"m 764 1189 b 577 1393 634 1189 556 1282 l 707 1393 b 780 1302 697 1341 730 1302 b 884 1393 831 1302 874 1339 l 1015 1393 b 764 1189 991 1270 895 1189 m 1192 628 b 1182 522 1191 588 1187 553 b 557 -26 1127 209 892 -26 b 76 549 216 -26 25 216 b 753 1115 131 911 429 1124 b 1098 941 910 1109 1031 1028 l 895 721 b 690 845 849 787 789 845 b 372 549 551 845 406 729 b 597 247 338 363 450 247 b 836 412 733 247 819 355 l 614 412 l 656 628 "},"ğ":{"ha":1207,"x_min":0,"x_max":0,"o":"m 764 1189 b 1015 1393 895 1189 991 1270 l 884 1393 b 780 1302 874 1339 831 1302 b 707 1393 730 1302 697 1341 l 577 1393 b 764 1189 556 1282 634 1189 m 656 628 l 614 412 l 836 412 b 597 247 819 355 733 247 b 372 549 450 247 338 363 b 690 845 406 729 551 845 b 895 721 789 845 849 787 l 1098 941 b 753 1115 1031 1028 910 1109 b 76 549 429 1124 131 911 b 557 -26 25 216 216 -26 b 1182 522 892 -26 1127 209 b 1192 628 1187 553 1191 588 "},"Ģ":{"ha":1207,"x_min":0,"x_max":0,"o":"m 1192 628 b 1182 522 1191 588 1187 553 b 557 -26 1127 209 892 -26 b 76 549 216 -26 25 216 b 753 1115 131 911 429 1124 b 1098 941 910 1109 1031 1028 l 895 721 b 690 845 849 787 789 845 b 372 549 551 845 406 729 b 597 247 338 363 450 247 b 836 412 733 247 819 355 l 614 412 l 656 628 m 505 -81 b 608 -221 576 -81 623 -135 b 397 -419 591 -323 501 -419 b 330 -388 353 -419 328 -399 b 440 -311 361 -388 429 -368 b 437 -279 444 -294 441 -286 b 363 -189 393 -279 354 -241 b 505 -81 374 -130 435 -81 "},"ģ":{"ha":1207,"x_min":0,"x_max":0,"o":"m 656 628 l 614 412 l 836 412 b 597 247 819 355 733 247 b 372 549 450 247 338 363 b 690 845 406 729 551 845 b 895 721 789 845 849 787 l 1098 941 b 753 1115 1031 1028 910 1109 b 76 549 429 1124 131 911 b 557 -26 25 216 216 -26 b 1182 522 892 -26 1127 209 b 1192 628 1187 553 1191 588 m 505 -81 b 363 -189 435 -81 374 -130 b 437 -279 354 -241 393 -279 b 440 -311 441 -286 444 -294 b 330 -388 429 -368 361 -388 b 397 -419 328 -399 353 -419 b 608 -221 501 -419 591 -323 b 505 -81 623 -135 576 -81 "},"Ġ":{"ha":1207,"x_min":0,"x_max":0,"o":"m 756 1193 b 663 1299 692 1193 651 1241 b 798 1409 673 1358 735 1409 b 892 1300 861 1409 903 1358 b 756 1193 881 1240 819 1193 m 1192 628 b 1182 522 1191 588 1187 553 b 557 -26 1127 209 892 -26 b 76 549 216 -26 25 216 b 753 1115 131 911 429 1124 b 1098 941 910 1109 1031 1028 l 895 721 b 690 845 849 787 789 845 b 372 549 551 845 406 729 b 597 247 338 363 450 247 b 836 412 733 247 819 355 l 614 412 l 656 628 "},"ġ":{"ha":1207,"x_min":0,"x_max":0,"o":"m 756 1193 b 892 1300 819 1193 881 1240 b 798 1409 903 1358 861 1409 b 663 1299 735 1409 673 1358 b 756 1193 651 1241 692 1193 m 656 628 l 614 412 l 836 412 b 597 247 819 355 733 247 b 372 549 450 247 338 363 b 690 845 406 729 551 845 b 895 721 789 845 849 787 l 1098 941 b 753 1115 1031 1028 910 1109 b 76 549 429 1124 131 911 b 557 -26 25 216 216 -26 b 1182 522 892 -26 1127 209 b 1192 628 1187 553 1191 588 "},"H":{"ha":1062,"x_min":0,"x_max":0,"o":"m 1100 1093 l 888 0 l 591 0 l 671 412 l 393 412 l 313 0 l 16 0 l 229 1093 l 525 1093 l 446 683 l 724 683 l 804 1093 "},"h":{"ha":1062,"x_min":0,"x_max":0,"o":"m 804 1093 l 724 683 l 446 683 l 525 1093 l 229 1093 l 16 0 l 313 0 l 393 412 l 671 412 l 591 0 l 888 0 l 1100 1093 "},"Ħ":{"ha":1062,"x_min":0,"x_max":0,"o":"m 1133 785 l 1040 785 l 888 0 l 591 0 l 671 412 l 393 412 l 313 0 l 16 0 l 169 785 l 64 785 l 94 941 l 199 941 l 229 1093 l 525 1093 l 496 941 l 774 941 l 804 1093 l 1100 1093 l 1071 941 l 1163 941 m 744 785 l 465 785 l 446 683 l 724 683 "},"ħ":{"ha":1062,"x_min":0,"x_max":0,"o":"m 1163 941 l 1071 941 l 1100 1093 l 804 1093 l 774 941 l 496 941 l 525 1093 l 229 1093 l 199 941 l 94 941 l 64 785 l 169 785 l 16 0 l 313 0 l 393 412 l 671 412 l 591 0 l 888 0 l 1040 785 l 1133 785 m 724 683 l 446 683 l 465 785 l 744 785 "},"I":{"ha":487,"x_min":0,"x_max":0,"o":"m 229 1093 l 525 1093 l 313 0 l 16 0 "},"Í":{"ha":487,"x_min":0,"x_max":0,"o":"m 222 1183 l 383 1412 l 610 1412 l 405 1183 m 229 1093 l 525 1093 l 313 0 l 16 0 "},"í":{"ha":487,"x_min":0,"x_max":0,"o":"m 405 1183 l 610 1412 l 383 1412 l 222 1183 m 16 0 l 313 0 l 525 1093 l 229 1093 "},"Î":{"ha":487,"x_min":0,"x_max":0,"o":"m 359 1392 l 507 1392 l 683 1193 l 488 1193 l 423 1276 l 326 1193 l 110 1193 m 229 1093 l 525 1093 l 313 0 l 16 0 "},"î":{"ha":487,"x_min":0,"x_max":0,"o":"m 110 1193 l 326 1193 l 423 1276 l 488 1193 l 683 1193 l 507 1392 l 359 1392 m 16 0 l 313 0 l 525 1093 l 229 1093 "},"Ï":{"ha":487,"x_min":0,"x_max":0,"o":"m 233 1194 b 151 1287 179 1194 141 1236 b 269 1381 161 1337 215 1381 b 351 1287 323 1381 361 1337 b 233 1194 340 1236 288 1194 m 560 1194 b 479 1287 506 1194 469 1236 b 596 1381 488 1337 542 1381 b 678 1287 650 1381 688 1337 b 560 1194 668 1236 614 1194 m 229 1093 l 525 1093 l 313 0 l 16 0 "},"ï":{"ha":487,"x_min":0,"x_max":0,"o":"m 233 1194 b 351 1287 288 1194 340 1236 b 269 1381 361 1337 323 1381 b 151 1287 215 1381 161 1337 b 233 1194 141 1236 179 1194 m 560 1194 b 678 1287 614 1194 668 1236 b 596 1381 688 1337 650 1381 b 479 1287 542 1381 488 1337 b 560 1194 469 1236 506 1194 m 16 0 l 313 0 l 525 1093 l 229 1093 "},"İ":{"ha":487,"x_min":0,"x_max":0,"o":"m 396 1193 b 302 1299 332 1193 291 1241 b 438 1409 313 1358 375 1409 b 532 1300 501 1409 543 1358 b 396 1193 521 1240 458 1193 m 229 1093 l 525 1093 l 313 0 l 16 0 "},"Ì":{"ha":487,"x_min":0,"x_max":0,"o":"m 250 1412 l 477 1412 l 549 1183 l 367 1183 m 229 1093 l 525 1093 l 313 0 l 16 0 "},"ì":{"ha":487,"x_min":0,"x_max":0,"o":"m 367 1183 l 549 1183 l 477 1412 l 250 1412 m 16 0 l 313 0 l 525 1093 l 229 1093 "},"Ī":{"ha":487,"x_min":0,"x_max":0,"o":"m 206 1358 l 651 1358 l 625 1221 l 180 1221 m 229 1093 l 525 1093 l 313 0 l 16 0 "},"ī":{"ha":487,"x_min":0,"x_max":0,"o":"m 180 1221 l 625 1221 l 651 1358 l 206 1358 m 16 0 l 313 0 l 525 1093 l 229 1093 "},"Į":{"ha":487,"x_min":0,"x_max":0,"o":"m 218 -201 b 299 -189 233 -201 264 -197 l 326 -372 b 195 -387 277 -382 234 -387 b -23 -218 53 -387 -23 -323 b 122 0 -23 -123 39 -43 l 16 0 l 229 1093 l 525 1093 l 313 0 b 179 -157 219 -69 179 -111 b 218 -201 179 -180 191 -201 "},"į":{"ha":487,"x_min":0,"x_max":0,"o":"m 218 -201 b 179 -157 191 -201 179 -180 b 313 0 179 -111 219 -69 l 525 1093 l 229 1093 l 16 0 l 122 0 b -23 -218 39 -43 -23 -123 b 195 -387 -23 -323 53 -387 b 326 -372 234 -387 277 -382 l 299 -189 b 218 -201 264 -197 233 -201 "},"J":{"ha":806,"x_min":0,"x_max":0,"o":"m 214 -18 b -33 91 84 -18 20 28 l 135 300 b 245 256 161 272 197 256 b 428 422 343 256 408 317 l 553 1093 l 850 1093 l 724 420 b 214 -18 669 134 496 -18 "},"j":{"ha":806,"x_min":0,"x_max":0,"o":"m 214 -18 b 724 420 496 -18 669 134 l 850 1093 l 553 1093 l 428 422 b 245 256 408 317 343 256 b 135 300 197 256 161 272 l -33 91 b 214 -18 20 28 84 -18 "},"K":{"ha":1005,"x_min":0,"x_max":0,"o":"m 681 548 l 916 0 l 597 0 l 402 461 l 313 0 l 16 0 l 229 1093 l 525 1093 l 446 689 l 756 1093 l 1109 1093 "},"k":{"ha":1005,"x_min":0,"x_max":0,"o":"m 1109 1093 l 756 1093 l 446 689 l 525 1093 l 229 1093 l 16 0 l 313 0 l 402 461 l 597 0 l 916 0 l 681 548 "},"Ķ":{"ha":1005,"x_min":0,"x_max":0,"o":"m 681 548 l 916 0 l 597 0 l 402 461 l 313 0 l 16 0 l 229 1093 l 525 1093 l 446 689 l 756 1093 l 1109 1093 m 404 -81 b 507 -221 475 -81 522 -135 b 296 -419 490 -323 400 -419 b 229 -388 252 -419 227 -399 b 339 -311 260 -388 328 -368 b 336 -279 342 -294 340 -286 b 262 -189 292 -279 253 -241 b 404 -81 273 -130 334 -81 "},"ķ":{"ha":1005,"x_min":0,"x_max":0,"o":"m 1109 1093 l 756 1093 l 446 689 l 525 1093 l 229 1093 l 16 0 l 313 0 l 402 461 l 597 0 l 916 0 l 681 548 m 404 -81 b 262 -189 334 -81 273 -130 b 336 -279 253 -241 292 -279 b 339 -311 340 -286 342 -294 b 229 -388 328 -368 260 -388 b 296 -419 227 -399 252 -419 b 507 -221 400 -419 490 -323 b 404 -81 522 -135 475 -81 "},"L":{"ha":809,"x_min":0,"x_max":0,"o":"m 754 273 l 701 0 l 16 0 l 229 1093 l 527 1093 l 368 273 "},"l":{"ha":809,"x_min":0,"x_max":0,"o":"m 368 273 l 527 1093 l 229 1093 l 16 0 l 701 0 l 754 273 "},"Ĺ":{"ha":809,"x_min":0,"x_max":0,"o":"m 575 1183 l 393 1183 l 553 1412 l 781 1412 m 368 273 l 754 273 l 701 0 l 16 0 l 229 1093 l 527 1093 "},"ĺ":{"ha":809,"x_min":0,"x_max":0,"o":"m 781 1412 l 553 1412 l 393 1183 l 575 1183 m 527 1093 l 229 1093 l 16 0 l 701 0 l 754 273 l 368 273 "},"Ľ":{"ha":809,"x_min":0,"x_max":0,"o":"m 904 1161 l 760 842 l 604 842 l 714 1161 m 368 273 l 754 273 l 701 0 l 16 0 l 229 1093 l 527 1093 "},"ľ":{"ha":809,"x_min":0,"x_max":0,"o":"m 714 1161 l 604 842 l 760 842 l 904 1161 m 527 1093 l 229 1093 l 16 0 l 701 0 l 754 273 l 368 273 "},"Ļ":{"ha":809,"x_min":0,"x_max":0,"o":"m 754 273 l 701 0 l 16 0 l 229 1093 l 527 1093 l 368 273 m 332 -81 b 435 -221 404 -81 450 -135 b 224 -419 418 -323 328 -419 b 157 -388 180 -419 155 -399 b 267 -311 189 -388 256 -368 b 264 -279 271 -294 269 -286 b 191 -189 220 -279 181 -241 b 332 -81 201 -130 262 -81 "},"ļ":{"ha":809,"x_min":0,"x_max":0,"o":"m 368 273 l 527 1093 l 229 1093 l 16 0 l 701 0 l 754 273 m 332 -81 b 191 -189 262 -81 201 -130 b 264 -279 181 -241 220 -279 b 267 -311 269 -286 271 -294 b 157 -388 256 -368 189 -388 b 224 -419 155 -399 180 -419 b 435 -221 328 -419 418 -323 b 332 -81 450 -135 404 -81 "},"Ł":{"ha":809,"x_min":0,"x_max":0,"o":"m 754 273 l 701 0 l 16 0 l 84 349 l -24 284 l 17 494 l 125 558 l 229 1093 l 527 1093 l 463 759 l 600 841 l 559 630 l 421 548 l 368 273 "},"ł":{"ha":809,"x_min":0,"x_max":0,"o":"m 368 273 l 421 548 l 559 630 l 600 841 l 463 759 l 527 1093 l 229 1093 l 125 558 l 17 494 l -24 284 l 84 349 l 16 0 l 701 0 l 754 273 "},"M":{"ha":1325,"x_min":0,"x_max":0,"o":"m 1365 1103 l 1151 0 l 854 0 l 936 422 l 581 18 l 580 18 l 395 418 l 313 0 l 16 0 l 231 1103 l 363 1103 l 653 475 l 1206 1103 "},"m":{"ha":1325,"x_min":0,"x_max":0,"o":"m 1206 1103 l 653 475 l 363 1103 l 231 1103 l 16 0 l 313 0 l 395 418 l 580 18 l 581 18 l 936 422 l 854 0 l 1151 0 l 1365 1103 "},"N":{"ha":1097,"x_min":0,"x_max":0,"o":"m 1136 1095 l 921 -11 l 821 -11 l 414 524 l 312 -1 l 16 -1 l 231 1104 l 332 1104 l 737 571 l 839 1095 "},"n":{"ha":1097,"x_min":0,"x_max":0,"o":"m 839 1095 l 737 571 l 332 1104 l 231 1104 l 16 -1 l 312 -1 l 414 524 l 821 -11 l 921 -11 l 1136 1095 "},"Ń":{"ha":1097,"x_min":0,"x_max":0,"o":"m 710 1183 l 528 1183 l 688 1412 l 916 1412 m 1136 1095 l 921 -11 l 821 -11 l 414 524 l 312 -1 l 16 -1 l 231 1104 l 332 1104 l 737 571 l 839 1095 "},"ń":{"ha":1097,"x_min":0,"x_max":0,"o":"m 916 1412 l 688 1412 l 528 1183 l 710 1183 m 839 1095 l 737 571 l 332 1104 l 231 1104 l 16 -1 l 312 -1 l 414 524 l 821 -11 l 921 -11 l 1136 1095 "},"Ň":{"ha":1097,"x_min":0,"x_max":0,"o":"m 629 1193 l 454 1392 l 648 1392 l 713 1309 l 810 1392 l 1027 1392 l 777 1193 m 1136 1095 l 921 -11 l 821 -11 l 414 524 l 312 -1 l 16 -1 l 231 1104 l 332 1104 l 737 571 l 839 1095 "},"ň":{"ha":1097,"x_min":0,"x_max":0,"o":"m 777 1193 l 1027 1392 l 810 1392 l 713 1309 l 648 1392 l 454 1392 l 629 1193 m 839 1095 l 737 571 l 332 1104 l 231 1104 l 16 -1 l 312 -1 l 414 524 l 821 -11 l 921 -11 l 1136 1095 "},"Ņ":{"ha":1097,"x_min":0,"x_max":0,"o":"m 1136 1095 l 921 -11 l 821 -11 l 414 524 l 312 -1 l 16 -1 l 231 1104 l 332 1104 l 737 571 l 839 1095 m 473 -81 b 576 -221 545 -81 591 -135 b 366 -419 559 -323 469 -419 b 298 -388 321 -419 296 -399 b 408 -311 330 -388 397 -368 b 406 -279 412 -294 410 -286 b 332 -189 361 -279 322 -241 b 473 -81 342 -130 404 -81 "},"ņ":{"ha":1097,"x_min":0,"x_max":0,"o":"m 839 1095 l 737 571 l 332 1104 l 231 1104 l 16 -1 l 312 -1 l 414 524 l 821 -11 l 921 -11 l 1136 1095 m 473 -81 b 332 -189 404 -81 342 -130 b 406 -279 322 -241 361 -279 b 408 -311 410 -286 412 -294 b 298 -388 397 -368 330 -388 b 366 -419 296 -399 321 -419 b 576 -221 469 -419 559 -323 b 473 -81 591 -135 545 -81 "},"Ŋ":{"ha":1097,"x_min":0,"x_max":0,"o":"m 921 -10 l 922 -11 l 916 -39 b 611 -357 888 -181 772 -295 l 475 -238 b 636 -43 555 -197 618 -137 l 678 176 l 414 524 l 312 -1 l 16 -1 l 231 1104 l 332 1104 l 737 571 l 839 1095 l 1136 1095 "},"ŋ":{"ha":1097,"x_min":0,"x_max":0,"o":"m 1136 1095 l 839 1095 l 737 571 l 332 1104 l 231 1104 l 16 -1 l 312 -1 l 414 524 l 678 176 l 636 -43 b 475 -238 618 -137 555 -197 l 611 -357 b 916 -39 772 -295 888 -181 l 922 -11 l 921 -10 "},"Ñ":{"ha":1097,"x_min":0,"x_max":0,"o":"m 617 1284 b 531 1200 578 1284 551 1246 l 406 1240 b 633 1422 462 1382 555 1422 b 831 1335 746 1422 772 1335 b 918 1419 869 1335 898 1372 l 1042 1378 b 816 1196 985 1233 889 1196 b 617 1284 702 1196 677 1284 m 1136 1095 l 921 -11 l 821 -11 l 414 524 l 312 -1 l 16 -1 l 231 1104 l 332 1104 l 737 571 l 839 1095 "},"ñ":{"ha":1097,"x_min":0,"x_max":0,"o":"m 617 1284 b 816 1196 677 1284 702 1196 b 1042 1378 889 1196 985 1233 l 918 1419 b 831 1335 898 1372 869 1335 b 633 1422 772 1335 746 1422 b 406 1240 555 1422 462 1382 l 531 1200 b 617 1284 551 1246 578 1284 m 839 1095 l 737 571 l 332 1104 l 231 1104 l 16 -1 l 312 -1 l 414 524 l 821 -11 l 921 -11 l 1136 1095 "},"O":{"ha":1207,"x_min":0,"x_max":0,"o":"m 527 -24 b 76 545 218 -7 33 223 b 732 1109 121 891 401 1128 b 1183 536 1044 1093 1227 858 b 527 -24 1137 189 854 -42 m 577 249 b 888 541 734 243 861 375 b 683 838 916 711 828 833 b 372 545 530 843 399 717 b 577 249 345 382 425 254 "},"o":{"ha":1207,"x_min":0,"x_max":0,"o":"m 527 -24 b 1183 536 854 -42 1137 189 b 732 1109 1227 858 1044 1093 b 76 545 401 1128 121 891 b 527 -24 33 223 218 -7 m 577 249 b 372 545 425 254 345 382 b 683 838 399 717 530 843 b 888 541 828 833 916 711 b 577 249 861 375 734 243 "},"Ó":{"ha":1207,"x_min":0,"x_max":0,"o":"m 583 1183 l 744 1412 l 971 1412 l 766 1183 m 527 -24 b 76 545 218 -7 33 223 b 732 1109 121 891 401 1128 b 1183 536 1044 1093 1227 858 b 527 -24 1137 189 854 -42 m 577 249 b 888 541 734 243 861 375 b 683 838 916 711 828 833 b 372 545 530 843 399 717 b 577 249 345 382 425 254 "},"ó":{"ha":1207,"x_min":0,"x_max":0,"o":"m 766 1183 l 971 1412 l 744 1412 l 583 1183 m 527 -24 b 1183 536 854 -42 1137 189 b 732 1109 1227 858 1044 1093 b 76 545 401 1128 121 891 b 527 -24 33 223 218 -7 m 577 249 b 372 545 425 254 345 382 b 683 838 399 717 530 843 b 888 541 828 833 916 711 b 577 249 861 375 734 243 "},"Ô":{"ha":1207,"x_min":0,"x_max":0,"o":"m 720 1392 l 868 1392 l 1044 1193 l 849 1193 l 784 1276 l 687 1193 l 471 1193 m 527 -24 b 76 545 218 -7 33 223 b 732 1109 121 891 401 1128 b 1183 536 1044 1093 1227 858 b 527 -24 1137 189 854 -42 m 577 249 b 888 541 734 243 861 375 b 683 838 916 711 828 833 b 372 545 530 843 399 717 b 577 249 345 382 425 254 "},"ô":{"ha":1207,"x_min":0,"x_max":0,"o":"m 471 1193 l 687 1193 l 784 1276 l 849 1193 l 1044 1193 l 868 1392 l 720 1392 m 527 -24 b 1183 536 854 -42 1137 189 b 732 1109 1227 858 1044 1093 b 76 545 401 1128 121 891 b 527 -24 33 223 218 -7 m 577 249 b 372 545 425 254 345 382 b 683 838 399 717 530 843 b 888 541 828 833 916 711 b 577 249 861 375 734 243 "},"Ö":{"ha":1207,"x_min":0,"x_max":0,"o":"m 594 1194 b 512 1287 540 1194 502 1236 b 630 1381 522 1337 576 1381 b 711 1287 684 1381 722 1337 b 594 1194 701 1236 648 1194 m 921 1194 b 840 1287 867 1194 829 1236 b 957 1381 849 1337 903 1381 b 1039 1287 1011 1381 1048 1337 b 921 1194 1029 1236 975 1194 m 527 -24 b 76 545 218 -7 33 223 b 732 1109 121 891 401 1128 b 1183 536 1044 1093 1227 858 b 527 -24 1137 189 854 -42 m 577 249 b 888 541 734 243 861 375 b 683 838 916 711 828 833 b 372 545 530 843 399 717 b 577 249 345 382 425 254 "},"ö":{"ha":1207,"x_min":0,"x_max":0,"o":"m 594 1194 b 711 1287 648 1194 701 1236 b 630 1381 722 1337 684 1381 b 512 1287 576 1381 522 1337 b 594 1194 502 1236 540 1194 m 921 1194 b 1039 1287 975 1194 1029 1236 b 957 1381 1048 1337 1011 1381 b 840 1287 903 1381 849 1337 b 921 1194 829 1236 867 1194 m 527 -24 b 1183 536 854 -42 1137 189 b 732 1109 1227 858 1044 1093 b 76 545 401 1128 121 891 b 527 -24 33 223 218 -7 m 577 249 b 372 545 425 254 345 382 b 683 838 399 717 530 843 b 888 541 828 833 916 711 b 577 249 861 375 734 243 "},"Ò":{"ha":1207,"x_min":0,"x_max":0,"o":"m 610 1412 l 838 1412 l 909 1183 l 727 1183 m 527 -24 b 76 545 218 -7 33 223 b 732 1109 121 891 401 1128 b 1183 536 1044 1093 1227 858 b 527 -24 1137 189 854 -42 m 577 249 b 888 541 734 243 861 375 b 683 838 916 711 828 833 b 372 545 530 843 399 717 b 577 249 345 382 425 254 "},"ò":{"ha":1207,"x_min":0,"x_max":0,"o":"m 727 1183 l 909 1183 l 838 1412 l 610 1412 m 527 -24 b 1183 536 854 -42 1137 189 b 732 1109 1227 858 1044 1093 b 76 545 401 1128 121 891 b 527 -24 33 223 218 -7 m 577 249 b 372 545 425 254 345 382 b 683 838 399 717 530 843 b 888 541 828 833 916 711 b 577 249 861 375 734 243 "},"Ő":{"ha":1207,"x_min":0,"x_max":0,"o":"m 608 1412 l 811 1412 l 633 1183 l 471 1183 m 918 1412 l 1145 1412 l 904 1183 l 732 1183 m 527 -24 b 76 545 218 -7 33 223 b 732 1109 121 891 401 1128 b 1183 536 1044 1093 1227 858 b 527 -24 1137 189 854 -42 m 577 249 b 888 541 734 243 861 375 b 683 838 916 711 828 833 b 372 545 530 843 399 717 b 577 249 345 382 425 254 "},"ő":{"ha":1207,"x_min":0,"x_max":0,"o":"m 471 1183 l 633 1183 l 811 1412 l 608 1412 m 732 1183 l 904 1183 l 1145 1412 l 918 1412 m 527 -24 b 1183 536 854 -42 1137 189 b 732 1109 1227 858 1044 1093 b 76 545 401 1128 121 891 b 527 -24 33 223 218 -7 m 577 249 b 372 545 425 254 345 382 b 683 838 399 717 530 843 b 888 541 828 833 916 711 b 577 249 861 375 734 243 "},"Ō":{"ha":1207,"x_min":0,"x_max":0,"o":"m 566 1358 l 1011 1358 l 985 1221 l 540 1221 m 527 -24 b 76 545 218 -7 33 223 b 732 1109 121 891 401 1128 b 1183 536 1044 1093 1227 858 b 527 -24 1137 189 854 -42 m 577 249 b 888 541 734 243 861 375 b 683 838 916 711 828 833 b 372 545 530 843 399 717 b 577 249 345 382 425 254 "},"ō":{"ha":1207,"x_min":0,"x_max":0,"o":"m 540 1221 l 985 1221 l 1011 1358 l 566 1358 m 527 -24 b 1183 536 854 -42 1137 189 b 732 1109 1227 858 1044 1093 b 76 545 401 1128 121 891 b 527 -24 33 223 218 -7 m 577 249 b 372 545 425 254 345 382 b 683 838 399 717 530 843 b 888 541 828 833 916 711 b 577 249 861 375 734 243 "},"Ø":{"ha":1207,"x_min":0,"x_max":0,"o":"m 1092 936 b 1183 536 1171 835 1205 696 b 527 -24 1137 189 854 -42 b 298 38 440 -20 363 2 l 228 -41 l -5 -41 l 165 151 b 76 545 89 251 55 387 b 732 1109 121 891 401 1128 b 959 1048 818 1105 895 1084 l 1035 1134 l 1267 1134 m 372 545 b 380 394 363 490 366 438 l 760 823 b 683 838 736 831 711 837 b 372 545 530 843 399 717 m 888 541 b 878 695 897 599 893 651 l 498 264 b 577 249 522 255 548 250 b 888 541 734 243 861 375 "},"ø":{"ha":1207,"x_min":0,"x_max":0,"o":"m 1267 1134 l 1035 1134 l 959 1048 b 732 1109 895 1084 818 1105 b 76 545 401 1128 121 891 b 165 151 55 387 89 251 l -5 -41 l 228 -41 l 298 38 b 527 -24 363 2 440 -20 b 1183 536 854 -42 1137 189 b 1092 936 1205 696 1171 835 m 372 545 b 683 838 399 717 530 843 b 760 823 711 837 736 831 l 380 394 b 372 545 366 438 363 490 m 888 541 b 577 249 861 375 734 243 b 498 264 548 250 522 255 l 878 695 b 888 541 893 651 897 599 "},"Õ":{"ha":1207,"x_min":0,"x_max":0,"o":"m 461 1240 b 688 1422 517 1382 610 1422 b 886 1335 801 1422 827 1335 b 973 1419 924 1335 953 1372 l 1097 1378 b 871 1196 1040 1233 944 1196 b 672 1284 757 1196 732 1284 b 586 1200 633 1284 606 1246 m 527 -24 b 76 545 218 -7 33 223 b 732 1109 121 891 401 1128 b 1183 536 1044 1093 1227 858 b 527 -24 1137 189 854 -42 m 577 249 b 888 541 734 243 861 375 b 683 838 916 711 828 833 b 372 545 530 843 399 717 b 577 249 345 382 425 254 "},"õ":{"ha":1207,"x_min":0,"x_max":0,"o":"m 586 1200 b 672 1284 606 1246 633 1284 b 871 1196 732 1284 757 1196 b 1097 1378 944 1196 1040 1233 l 973 1419 b 886 1335 953 1372 924 1335 b 688 1422 827 1335 801 1422 b 461 1240 610 1422 517 1382 m 527 -24 b 1183 536 854 -42 1137 189 b 732 1109 1227 858 1044 1093 b 76 545 401 1128 121 891 b 527 -24 33 223 218 -7 m 577 249 b 372 545 425 254 345 382 b 683 838 399 717 530 843 b 888 541 828 833 916 711 b 577 249 861 375 734 243 "},"Œ":{"ha":1725,"x_min":0,"x_max":0,"o":"m 1354 823 l 1324 671 l 1636 671 l 1589 429 l 1278 429 l 1247 272 l 1632 272 l 1579 0 l 898 0 l 920 113 b 527 -24 817 18 682 -33 b 76 545 218 -7 33 223 b 732 1109 121 891 398 1127 b 1078 926 895 1101 1012 1036 l 1110 1093 l 1791 1093 l 1738 823 m 888 542 b 683 838 916 711 828 833 b 372 545 530 843 399 717 b 577 249 345 382 425 254 b 888 542 734 243 861 374 "},"œ":{"ha":1725,"x_min":0,"x_max":0,"o":"m 1738 823 l 1791 1093 l 1110 1093 l 1078 926 b 732 1109 1012 1036 895 1101 b 76 545 398 1127 121 891 b 527 -24 33 223 218 -7 b 920 113 682 -33 817 18 l 898 0 l 1579 0 l 1632 272 l 1247 272 l 1278 429 l 1589 429 l 1636 671 l 1324 671 l 1354 823 m 888 542 b 577 249 861 374 734 243 b 372 545 425 254 345 382 b 683 838 399 717 530 843 b 888 542 828 833 916 711 "},"P":{"ha":918,"x_min":0,"x_max":0,"o":"m 229 1093 l 605 1093 b 945 700 821 1093 981 945 b 455 322 912 469 732 322 l 376 322 l 313 0 l 16 0 m 507 589 b 669 702 602 589 657 633 b 553 825 680 776 633 825 l 473 825 l 427 590 l 507 589 "},"p":{"ha":918,"x_min":0,"x_max":0,"o":"m 16 0 l 313 0 l 376 322 l 455 322 b 945 700 732 322 912 469 b 605 1093 981 945 821 1093 l 229 1093 m 507 589 l 427 590 l 473 825 l 553 825 b 669 702 633 825 680 776 b 507 589 657 633 602 589 "},"Þ":{"ha":967,"x_min":0,"x_max":0,"o":"m 229 1093 l 525 1093 l 493 927 l 618 927 b 947 550 802 927 983 799 b 473 180 916 338 739 180 l 348 180 l 313 0 l 16 0 m 509 435 b 656 551 591 435 646 479 b 557 673 667 627 619 673 l 444 673 l 397 435 "},"þ":{"ha":967,"x_min":0,"x_max":0,"o":"m 16 0 l 313 0 l 348 180 l 473 180 b 947 550 739 180 916 338 b 618 927 983 799 802 927 l 493 927 l 525 1093 l 229 1093 m 397 435 l 444 673 l 557 673 b 656 551 619 673 667 627 b 509 435 646 479 591 435 "},"Q":{"ha":1234,"x_min":0,"x_max":0,"o":"m 1183 536 b 910 81 1157 338 1054 178 b 1147 35 977 56 1058 38 l 1010 -205 b 628 -22 819 -191 709 -113 b 527 -24 595 -25 562 -26 b 76 545 218 -7 33 223 b 732 1109 121 891 401 1128 b 1183 536 1044 1093 1227 858 m 577 249 b 888 541 734 243 861 375 b 683 838 916 711 828 833 b 372 545 530 843 399 717 b 577 249 345 382 425 254 "},"q":{"ha":1234,"x_min":0,"x_max":0,"o":"m 1183 536 b 732 1109 1227 858 1044 1093 b 76 545 401 1128 121 891 b 527 -24 33 223 218 -7 b 628 -22 562 -26 595 -25 b 1010 -205 709 -113 819 -191 l 1147 35 b 910 81 1058 38 977 56 b 1183 536 1054 178 1157 338 m 577 249 b 372 545 425 254 345 382 b 683 838 399 717 530 843 b 888 541 828 833 916 711 b 577 249 861 375 734 243 "},"R":{"ha":1004,"x_min":0,"x_max":0,"o":"m 936 718 b 688 427 912 576 817 467 l 915 0 l 595 0 l 395 419 l 313 0 l 18 0 l 229 1093 l 595 1093 b 936 718 817 1093 975 947 m 432 616 l 511 616 b 646 719 583 614 637 656 b 552 829 656 782 614 829 l 473 829 "},"r":{"ha":1004,"x_min":0,"x_max":0,"o":"m 936 718 b 595 1093 975 947 817 1093 l 229 1093 l 18 0 l 313 0 l 395 419 l 595 0 l 915 0 l 688 427 b 936 718 817 467 912 576 m 473 829 l 552 829 b 646 719 614 829 656 782 b 511 616 637 656 583 614 l 432 616 "},"Ŕ":{"ha":1004,"x_min":0,"x_max":0,"o":"m 664 1183 l 481 1183 l 642 1412 l 869 1412 m 936 718 b 688 427 912 576 817 467 l 915 0 l 595 0 l 395 419 l 313 0 l 18 0 l 229 1093 l 595 1093 b 936 718 817 1093 975 947 m 432 616 l 511 616 b 646 719 583 614 637 656 b 552 829 656 782 614 829 l 473 829 "},"ŕ":{"ha":1004,"x_min":0,"x_max":0,"o":"m 869 1412 l 642 1412 l 481 1183 l 664 1183 m 936 718 b 595 1093 975 947 817 1093 l 229 1093 l 18 0 l 313 0 l 395 419 l 595 0 l 915 0 l 688 427 b 936 718 817 467 912 576 m 473 829 l 552 829 b 646 719 614 829 656 782 b 511 616 637 656 583 614 l 432 616 "},"Ř":{"ha":1004,"x_min":0,"x_max":0,"o":"m 583 1193 l 408 1392 l 602 1392 l 667 1309 l 764 1392 l 981 1392 l 731 1193 m 595 1093 b 936 718 817 1093 975 947 b 688 427 912 576 817 467 l 915 0 l 595 0 l 395 419 l 313 0 l 18 0 l 229 1093 l 595 1093 m 432 616 l 511 616 b 646 719 583 614 637 656 b 552 829 656 782 614 829 l 473 829 "},"ř":{"ha":1004,"x_min":0,"x_max":0,"o":"m 731 1193 l 981 1392 l 764 1392 l 667 1309 l 602 1392 l 408 1392 l 583 1193 m 595 1093 l 229 1093 l 18 0 l 313 0 l 395 419 l 595 0 l 915 0 l 688 427 b 936 718 817 467 912 576 b 595 1093 975 947 817 1093 m 473 829 l 552 829 b 646 719 614 829 656 782 b 511 616 637 656 583 614 l 432 616 "},"Ŗ":{"ha":1004,"x_min":0,"x_max":0,"o":"m 936 718 b 688 427 912 576 817 467 l 915 0 l 595 0 l 395 419 l 313 0 l 18 0 l 229 1093 l 595 1093 b 936 718 817 1093 975 947 m 432 616 l 511 616 b 646 719 583 614 637 656 b 552 829 656 782 614 829 l 473 829 m 404 -81 b 507 -221 475 -81 521 -135 b 296 -419 490 -323 399 -419 b 228 -388 252 -419 227 -399 b 338 -311 260 -388 327 -368 b 336 -279 342 -294 340 -286 b 262 -189 292 -279 252 -241 b 404 -81 273 -130 334 -81 "},"ŗ":{"ha":1004,"x_min":0,"x_max":0,"o":"m 936 718 b 595 1093 975 947 817 1093 l 229 1093 l 18 0 l 313 0 l 395 419 l 595 0 l 915 0 l 688 427 b 936 718 817 467 912 576 m 473 829 l 552 829 b 646 719 614 829 656 782 b 511 616 637 656 583 614 l 432 616 m 404 -81 b 262 -189 334 -81 273 -130 b 336 -279 252 -241 292 -279 b 338 -311 340 -286 342 -294 b 228 -388 327 -368 260 -388 b 296 -419 227 -399 252 -419 b 507 -221 399 -419 490 -323 b 404 -81 521 -135 475 -81 "},"S":{"ha":860,"x_min":0,"x_max":0,"o":"m 379 -15 b -2 203 183 -15 53 78 l 195 374 b 395 250 239 299 314 250 b 503 317 434 250 493 267 b 344 484 517 382 428 433 b 161 830 214 564 128 674 b 555 1109 195 994 364 1109 b 876 920 705 1109 831 1029 l 683 754 b 536 844 656 808 598 844 b 443 780 484 844 449 814 b 599 639 432 724 524 684 b 798 287 739 555 828 448 b 379 -15 765 106 610 -15 "},"s":{"ha":860,"x_min":0,"x_max":0,"o":"m 379 -15 b 798 287 610 -15 765 106 b 599 639 828 448 739 555 b 443 780 524 684 432 724 b 536 844 449 814 484 844 b 683 754 598 844 656 808 l 876 920 b 555 1109 831 1029 705 1109 b 161 830 364 1109 195 994 b 344 484 128 674 214 564 b 503 317 428 433 517 382 b 395 250 493 267 434 250 b 195 374 314 250 239 299 l -2 203 b 379 -15 53 78 183 -15 "},"Ś":{"ha":860,"x_min":0,"x_max":0,"o":"m 414 1183 l 574 1412 l 802 1412 l 596 1183 m 379 -15 b -2 203 183 -15 53 78 l 195 374 b 395 250 239 299 314 250 b 503 317 434 250 493 267 b 344 484 517 382 428 433 b 161 830 214 564 128 674 b 555 1109 195 994 364 1109 b 876 920 705 1109 831 1029 l 683 754 b 536 844 656 808 598 844 b 443 780 484 844 449 814 b 599 639 432 724 524 684 b 798 287 739 555 828 448 b 379 -15 765 106 610 -15 "},"ś":{"ha":860,"x_min":0,"x_max":0,"o":"m 596 1183 l 802 1412 l 574 1412 l 414 1183 m 379 -15 b 798 287 610 -15 765 106 b 599 639 828 448 739 555 b 443 780 524 684 432 724 b 536 844 449 814 484 844 b 683 754 598 844 656 808 l 876 920 b 555 1109 831 1029 705 1109 b 161 830 364 1109 195 994 b 344 484 128 674 214 564 b 503 317 428 433 517 382 b 395 250 493 267 434 250 b 195 374 314 250 239 299 l -2 203 b 379 -15 53 78 183 -15 "},"Š":{"ha":860,"x_min":0,"x_max":0,"o":"m 663 1193 l 515 1193 l 340 1392 l 534 1392 l 600 1309 l 696 1392 l 913 1392 m 379 -15 b -2 203 183 -15 53 78 l 195 374 b 395 250 239 299 314 250 b 503 317 434 250 493 267 b 344 484 517 382 428 433 b 161 830 214 564 128 674 b 555 1109 195 994 364 1109 b 876 920 705 1109 831 1029 l 683 754 b 536 844 656 808 598 844 b 443 780 484 844 449 814 b 599 639 432 724 524 684 b 798 287 739 555 828 448 b 379 -15 765 106 610 -15 "},"š":{"ha":860,"x_min":0,"x_max":0,"o":"m 913 1392 l 696 1392 l 600 1309 l 534 1392 l 340 1392 l 515 1193 l 663 1193 m 379 -15 b 798 287 610 -15 765 106 b 599 639 828 448 739 555 b 443 780 524 684 432 724 b 536 844 449 814 484 844 b 683 754 598 844 656 808 l 876 920 b 555 1109 831 1029 705 1109 b 161 830 364 1109 195 994 b 344 484 128 674 214 564 b 503 317 428 433 517 382 b 395 250 493 267 434 250 b 195 374 314 250 239 299 l -2 203 b 379 -15 53 78 183 -15 "},"Ş":{"ha":860,"x_min":0,"x_max":0,"o":"m 599 639 b 798 287 739 555 828 448 b 419 -14 767 117 628 -1 l 376 -59 b 393 -58 382 -59 387 -58 b 490 -174 454 -58 496 -109 b 172 -389 480 -286 334 -391 l 117 -233 b 304 -180 249 -233 300 -210 b 264 -149 305 -169 300 -149 b 231 -154 255 -149 244 -151 l 202 -113 l 296 -9 b -2 203 146 14 45 97 l 195 374 b 395 250 239 299 314 250 b 503 317 434 250 493 267 b 344 484 517 382 428 433 b 161 830 214 564 128 674 b 555 1109 195 994 364 1109 b 876 920 705 1109 831 1029 l 683 754 b 536 844 656 808 598 844 b 443 780 484 844 449 814 b 599 639 432 724 524 684 "},"ş":{"ha":860,"x_min":0,"x_max":0,"o":"m 599 639 b 443 780 524 684 432 724 b 536 844 449 814 484 844 b 683 754 598 844 656 808 l 876 920 b 555 1109 831 1029 705 1109 b 161 830 364 1109 195 994 b 344 484 128 674 214 564 b 503 317 428 433 517 382 b 395 250 493 267 434 250 b 195 374 314 250 239 299 l -2 203 b 296 -9 45 97 146 14 l 202 -113 l 231 -154 b 264 -149 244 -151 255 -149 b 304 -180 300 -149 305 -169 b 117 -233 300 -210 249 -233 l 172 -389 b 490 -174 334 -391 480 -286 b 393 -58 496 -109 454 -58 b 376 -59 387 -58 382 -59 l 419 -14 b 798 287 628 -1 767 117 b 599 639 828 448 739 555 "},"Ș":{"ha":860,"x_min":0,"x_max":0,"o":"m 379 -15 b -2 203 183 -15 53 78 l 195 374 b 395 250 239 299 314 250 b 503 317 434 250 493 267 b 344 484 517 382 428 433 b 161 830 214 564 128 674 b 555 1109 195 994 364 1109 b 876 920 705 1109 831 1029 l 683 754 b 536 844 656 808 598 844 b 443 780 484 844 449 814 b 599 639 432 724 524 684 b 798 287 739 555 828 448 b 379 -15 765 106 610 -15 m 228 -419 b 160 -388 184 -419 159 -399 b 271 -311 192 -388 259 -368 b 268 -279 274 -294 272 -286 b 194 -189 224 -279 184 -241 b 336 -81 205 -130 266 -81 b 439 -221 407 -81 453 -135 b 228 -419 422 -323 332 -419 "},"ș":{"ha":860,"x_min":0,"x_max":0,"o":"m 379 -15 b 798 287 610 -15 765 106 b 599 639 828 448 739 555 b 443 780 524 684 432 724 b 536 844 449 814 484 844 b 683 754 598 844 656 808 l 876 920 b 555 1109 831 1029 705 1109 b 161 830 364 1109 195 994 b 344 484 128 674 214 564 b 503 317 428 433 517 382 b 395 250 493 267 434 250 b 195 374 314 250 239 299 l -2 203 b 379 -15 53 78 183 -15 m 228 -419 b 439 -221 332 -419 422 -323 b 336 -81 453 -135 407 -81 b 194 -189 266 -81 205 -130 b 268 -279 184 -241 224 -279 b 271 -311 272 -286 274 -294 b 160 -388 259 -368 192 -388 b 228 -419 159 -399 184 -419 "},"ß":{"ha":1316,"x_min":0,"x_max":0,"o":"m 1093 663 b 1270 318 1225 581 1293 469 b 827 -32 1235 96 1035 -32 b 473 184 659 -32 526 50 l 673 348 b 864 229 704 280 783 229 b 975 309 925 229 966 258 b 846 487 986 366 948 426 b 587 601 777 530 650 589 l 795 852 b 685 877 765 870 726 877 b 439 652 555 877 469 802 l 313 0 l 16 0 l 143 652 b 741 1124 206 979 421 1124 b 1183 975 939 1124 1088 1067 l 954 724 b 1093 663 999 712 1049 689 "},"ẞ":{"ha":1316,"x_min":0,"x_max":0,"o":"m 1093 663 b 954 724 1049 689 999 712 l 1183 975 b 741 1124 1088 1067 939 1124 b 143 652 421 1124 206 979 l 16 0 l 313 0 l 439 652 b 685 877 469 802 555 877 b 795 852 726 877 765 870 l 587 601 b 846 487 650 589 777 530 b 975 309 948 426 986 366 b 864 229 966 258 925 229 b 673 348 783 229 704 280 l 473 184 b 827 -32 526 50 659 -32 b 1270 318 1035 -32 1235 96 b 1093 663 1293 469 1225 581 "},"Ə":{"ha":1215,"x_min":0,"x_max":0,"o":"m 552 -8 b 75 549 151 -8 28 303 b 111 665 83 593 98 642 l 920 665 b 681 850 897 770 806 850 b 471 794 629 850 545 837 l 332 975 b 728 1105 442 1063 602 1105 b 1194 545 1021 1105 1240 881 b 552 -8 1152 237 907 -8 m 587 242 b 873 427 699 242 806 309 l 347 427 b 587 242 374 316 469 242 "},"ə":{"ha":1215,"x_min":0,"x_max":0,"o":"m 552 -8 b 1194 545 907 -8 1152 237 b 728 1105 1240 881 1021 1105 b 332 975 602 1105 442 1063 l 471 794 b 681 850 545 837 629 850 b 920 665 806 850 897 770 l 111 665 b 75 549 98 642 83 593 b 552 -8 28 303 151 -8 m 587 242 b 347 427 469 242 374 316 l 873 427 b 587 242 806 309 699 242 "},"T":{"ha":840,"x_min":0,"x_max":0,"o":"m 892 822 l 650 822 l 490 0 l 193 0 l 353 822 l 110 822 l 162 1093 l 945 1093 "},"t":{"ha":840,"x_min":0,"x_max":0,"o":"m 945 1093 l 162 1093 l 110 822 l 353 822 l 193 0 l 490 0 l 650 822 l 892 822 "},"Ŧ":{"ha":840,"x_min":0,"x_max":0,"o":"m 650 822 l 612 625 l 760 625 l 730 469 l 581 469 l 490 0 l 193 0 l 284 469 l 136 469 l 165 625 l 315 625 l 353 822 l 110 822 l 162 1093 l 945 1093 l 892 822 "},"ŧ":{"ha":840,"x_min":0,"x_max":0,"o":"m 892 822 l 945 1093 l 162 1093 l 110 822 l 353 822 l 315 625 l 165 625 l 136 469 l 284 469 l 193 0 l 490 0 l 581 469 l 730 469 l 760 625 l 612 625 l 650 822 "},"Ť":{"ha":840,"x_min":0,"x_max":0,"o":"m 500 1193 l 326 1392 l 520 1392 l 585 1309 l 682 1392 l 899 1392 l 649 1193 m 892 822 l 650 822 l 490 0 l 193 0 l 353 822 l 110 822 l 162 1093 l 945 1093 "},"ť":{"ha":840,"x_min":0,"x_max":0,"o":"m 649 1193 l 899 1392 l 682 1392 l 585 1309 l 520 1392 l 326 1392 l 500 1193 m 945 1093 l 162 1093 l 110 822 l 353 822 l 193 0 l 490 0 l 650 822 l 892 822 "},"Ţ":{"ha":840,"x_min":0,"x_max":0,"o":"m 892 822 l 650 822 l 490 0 l 418 0 l 362 -59 b 378 -58 368 -59 372 -58 b 476 -174 439 -58 482 -109 b 157 -389 466 -286 320 -391 l 103 -233 b 290 -180 235 -233 286 -210 b 250 -149 291 -169 286 -149 b 216 -154 241 -149 230 -151 l 188 -113 l 289 0 l 193 0 l 353 822 l 110 822 l 162 1093 l 945 1093 "},"ţ":{"ha":840,"x_min":0,"x_max":0,"o":"m 945 1093 l 162 1093 l 110 822 l 353 822 l 193 0 l 289 0 l 188 -113 l 216 -154 b 250 -149 230 -151 241 -149 b 290 -180 286 -149 291 -169 b 103 -233 286 -210 235 -233 l 157 -389 b 476 -174 320 -391 466 -286 b 378 -58 482 -109 439 -58 b 362 -59 372 -58 368 -59 l 418 0 l 490 0 l 650 822 l 892 822 "},"Ț":{"ha":840,"x_min":0,"x_max":0,"o":"m 892 822 l 650 822 l 490 0 l 193 0 l 353 822 l 110 822 l 162 1093 l 945 1093 m 321 -81 b 425 -221 393 -81 439 -135 b 214 -419 408 -323 317 -419 b 146 -388 170 -419 144 -399 b 256 -311 178 -388 245 -368 b 254 -279 260 -294 258 -286 b 180 -189 210 -279 170 -241 b 321 -81 191 -130 252 -81 "},"ț":{"ha":840,"x_min":0,"x_max":0,"o":"m 945 1093 l 162 1093 l 110 822 l 353 822 l 193 0 l 490 0 l 650 822 l 892 822 m 321 -81 b 180 -189 252 -81 191 -130 b 254 -279 170 -241 210 -279 b 256 -311 258 -286 260 -294 b 146 -388 245 -368 178 -388 b 214 -419 144 -399 170 -419 b 425 -221 317 -419 408 -323 b 321 -81 439 -135 393 -81 "},"U":{"ha":1042,"x_min":0,"x_max":0,"o":"m 458 -31 b 88 421 182 -31 41 175 l 219 1093 l 515 1093 l 385 422 b 501 247 365 315 416 247 b 663 422 597 247 646 334 l 793 1093 l 1090 1093 l 960 421 b 458 -31 903 132 705 -31 "},"u":{"ha":1042,"x_min":0,"x_max":0,"o":"m 458 -31 b 960 421 705 -31 903 132 l 1090 1093 l 793 1093 l 663 422 b 501 247 646 334 597 247 b 385 422 416 247 365 315 l 515 1093 l 219 1093 l 88 421 b 458 -31 41 175 182 -31 "},"Ú":{"ha":1042,"x_min":0,"x_max":0,"o":"m 500 1183 l 661 1412 l 888 1412 l 682 1183 m 458 -31 b 88 421 182 -31 41 175 l 219 1093 l 515 1093 l 385 422 b 501 247 365 315 416 247 b 663 422 597 247 646 334 l 793 1093 l 1090 1093 l 960 421 b 458 -31 903 132 705 -31 "},"ú":{"ha":1042,"x_min":0,"x_max":0,"o":"m 682 1183 l 888 1412 l 661 1412 l 500 1183 m 458 -31 b 960 421 705 -31 903 132 l 1090 1093 l 793 1093 l 663 422 b 501 247 646 334 597 247 b 385 422 416 247 365 315 l 515 1093 l 219 1093 l 88 421 b 458 -31 41 175 182 -31 "},"Û":{"ha":1042,"x_min":0,"x_max":0,"o":"m 636 1392 l 785 1392 l 960 1193 l 766 1193 l 701 1276 l 604 1193 l 387 1193 m 458 -31 b 88 421 182 -31 41 175 l 219 1093 l 515 1093 l 385 422 b 501 247 365 315 416 247 b 663 422 597 247 646 334 l 793 1093 l 1090 1093 l 960 421 b 458 -31 903 132 705 -31 "},"û":{"ha":1042,"x_min":0,"x_max":0,"o":"m 387 1193 l 604 1193 l 701 1276 l 766 1193 l 960 1193 l 785 1392 l 636 1392 m 458 -31 b 960 421 705 -31 903 132 l 1090 1093 l 793 1093 l 663 422 b 501 247 646 334 597 247 b 385 422 416 247 365 315 l 515 1093 l 219 1093 l 88 421 b 458 -31 41 175 182 -31 "},"Ü":{"ha":1042,"x_min":0,"x_max":0,"o":"m 511 1194 b 429 1287 456 1194 418 1236 b 547 1381 439 1337 492 1381 b 628 1287 601 1381 638 1337 b 511 1194 618 1236 565 1194 m 838 1194 b 756 1287 783 1194 746 1236 b 873 1381 766 1337 819 1381 b 956 1287 928 1381 965 1337 b 838 1194 945 1236 892 1194 m 458 -31 b 88 421 182 -31 41 175 l 219 1093 l 515 1093 l 385 422 b 501 247 365 315 416 247 b 663 422 597 247 646 334 l 793 1093 l 1090 1093 l 960 421 b 458 -31 903 132 705 -31 "},"ü":{"ha":1042,"x_min":0,"x_max":0,"o":"m 511 1194 b 628 1287 565 1194 618 1236 b 547 1381 638 1337 601 1381 b 429 1287 492 1381 439 1337 b 511 1194 418 1236 456 1194 m 838 1194 b 956 1287 892 1194 945 1236 b 873 1381 965 1337 928 1381 b 756 1287 819 1381 766 1337 b 838 1194 746 1236 783 1194 m 458 -31 b 960 421 705 -31 903 132 l 1090 1093 l 793 1093 l 663 422 b 501 247 646 334 597 247 b 385 422 416 247 365 315 l 515 1093 l 219 1093 l 88 421 b 458 -31 41 175 182 -31 "},"Ù":{"ha":1042,"x_min":0,"x_max":0,"o":"m 528 1412 l 755 1412 l 827 1183 l 644 1183 m 458 -31 b 88 421 182 -31 41 175 l 219 1093 l 515 1093 l 385 422 b 501 247 365 315 416 247 b 663 422 597 247 646 334 l 793 1093 l 1090 1093 l 960 421 b 458 -31 903 132 705 -31 "},"ù":{"ha":1042,"x_min":0,"x_max":0,"o":"m 644 1183 l 827 1183 l 755 1412 l 528 1412 m 458 -31 b 960 421 705 -31 903 132 l 1090 1093 l 793 1093 l 663 422 b 501 247 646 334 597 247 b 385 422 416 247 365 315 l 515 1093 l 219 1093 l 88 421 b 458 -31 41 175 182 -31 "},"Ű":{"ha":1042,"x_min":0,"x_max":0,"o":"m 526 1412 l 728 1412 l 551 1183 l 388 1183 m 835 1412 l 1062 1412 l 821 1183 l 649 1183 m 458 -31 b 88 421 182 -31 41 175 l 219 1093 l 515 1093 l 385 422 b 501 247 365 315 416 247 b 663 422 597 247 646 334 l 793 1093 l 1090 1093 l 960 421 b 458 -31 903 132 705 -31 "},"ű":{"ha":1042,"x_min":0,"x_max":0,"o":"m 388 1183 l 551 1183 l 728 1412 l 526 1412 m 649 1183 l 821 1183 l 1062 1412 l 835 1412 m 458 -31 b 960 421 705 -31 903 132 l 1090 1093 l 793 1093 l 663 422 b 501 247 646 334 597 247 b 385 422 416 247 365 315 l 515 1093 l 219 1093 l 88 421 b 458 -31 41 175 182 -31 "},"Ū":{"ha":1042,"x_min":0,"x_max":0,"o":"m 484 1358 l 928 1358 l 902 1221 l 457 1221 m 458 -31 b 88 421 182 -31 41 175 l 219 1093 l 515 1093 l 385 422 b 501 247 365 315 416 247 b 663 422 597 247 646 334 l 793 1093 l 1090 1093 l 960 421 b 458 -31 903 132 705 -31 "},"ū":{"ha":1042,"x_min":0,"x_max":0,"o":"m 457 1221 l 902 1221 l 928 1358 l 484 1358 m 458 -31 b 960 421 705 -31 903 132 l 1090 1093 l 793 1093 l 663 422 b 501 247 646 334 597 247 b 385 422 416 247 365 315 l 515 1093 l 219 1093 l 88 421 b 458 -31 41 175 182 -31 "},"Ų":{"ha":1042,"x_min":0,"x_max":0,"o":"m 1090 1093 l 960 421 b 525 -26 909 158 741 1 b 435 -151 463 -77 435 -112 b 474 -195 435 -174 446 -195 b 555 -182 489 -195 519 -191 l 581 -365 b 450 -380 533 -375 490 -380 b 233 -211 309 -380 233 -317 b 339 -16 233 -132 276 -62 b 88 421 142 34 48 213 l 219 1093 l 515 1093 l 385 422 b 501 247 365 315 416 247 b 663 422 597 247 646 334 l 793 1093 "},"ų":{"ha":1042,"x_min":0,"x_max":0,"o":"m 793 1093 l 663 422 b 501 247 646 334 597 247 b 385 422 416 247 365 315 l 515 1093 l 219 1093 l 88 421 b 339 -16 48 213 142 34 b 233 -211 276 -62 233 -132 b 450 -380 233 -317 309 -380 b 581 -365 490 -380 533 -375 l 555 -182 b 474 -195 519 -191 489 -195 b 435 -151 446 -195 435 -174 b 525 -26 435 -112 463 -77 b 960 421 741 1 909 158 l 1090 1093 "},"Ů":{"ha":1042,"x_min":0,"x_max":0,"o":"m 672 1158 b 534 1316 577 1158 519 1229 b 726 1475 549 1407 633 1475 b 862 1316 815 1475 878 1408 b 672 1158 847 1230 767 1158 m 687 1257 b 759 1315 720 1257 752 1282 b 709 1374 765 1348 743 1374 b 637 1315 675 1374 644 1349 b 687 1257 631 1283 652 1257 m 458 -31 b 88 421 182 -31 41 175 l 219 1093 l 515 1093 l 385 422 b 501 247 365 315 416 247 b 663 422 597 247 646 334 l 793 1093 l 1090 1093 l 960 421 b 458 -31 903 132 705 -31 "},"ů":{"ha":1042,"x_min":0,"x_max":0,"o":"m 672 1158 b 862 1316 767 1158 847 1230 b 726 1475 878 1408 815 1475 b 534 1316 633 1475 549 1407 b 672 1158 519 1229 577 1158 m 687 1257 b 637 1315 652 1257 631 1283 b 709 1374 644 1349 675 1374 b 759 1315 743 1374 765 1348 b 687 1257 752 1282 720 1257 m 458 -31 b 960 421 705 -31 903 132 l 1090 1093 l 793 1093 l 663 422 b 501 247 646 334 597 247 b 385 422 416 247 365 315 l 515 1093 l 219 1093 l 88 421 b 458 -31 41 175 182 -31 "},"V":{"ha":1125,"x_min":0,"x_max":0,"o":"m 1244 1093 l 555 -12 l 406 -12 l 148 1093 l 450 1093 l 565 518 l 900 1093 "},"v":{"ha":1125,"x_min":0,"x_max":0,"o":"m 900 1093 l 565 518 l 450 1093 l 148 1093 l 406 -12 l 555 -12 l 1244 1093 "},"W":{"ha":1375,"x_min":0,"x_max":0,"o":"m 148 1093 l 444 1093 l 485 593 l 789 1091 l 819 1091 l 929 594 l 1163 1093 l 1494 1093 l 939 -7 l 828 -7 l 708 526 l 385 -7 l 276 -7 "},"w":{"ha":1375,"x_min":0,"x_max":0,"o":"m 276 -7 l 385 -7 l 708 526 l 828 -7 l 939 -7 l 1494 1093 l 1163 1093 l 929 594 l 819 1091 l 789 1091 l 485 593 l 444 1093 l 148 1093 "},"Ẃ":{"ha":1375,"x_min":0,"x_max":0,"o":"m 667 1183 l 827 1412 l 1055 1412 l 849 1183 m 148 1093 l 444 1093 l 485 593 l 789 1091 l 819 1091 l 929 594 l 1163 1093 l 1494 1093 l 939 -7 l 828 -7 l 708 526 l 385 -7 l 276 -7 "},"ẃ":{"ha":1375,"x_min":0,"x_max":0,"o":"m 849 1183 l 1055 1412 l 827 1412 l 667 1183 m 276 -7 l 385 -7 l 708 526 l 828 -7 l 939 -7 l 1494 1093 l 1163 1093 l 929 594 l 819 1091 l 789 1091 l 485 593 l 444 1093 l 148 1093 "},"Ŵ":{"ha":1375,"x_min":0,"x_max":0,"o":"m 803 1392 l 951 1392 l 1127 1193 l 932 1193 l 867 1276 l 770 1193 l 554 1193 m 148 1093 l 444 1093 l 485 593 l 789 1091 l 819 1091 l 929 594 l 1163 1093 l 1494 1093 l 939 -7 l 828 -7 l 708 526 l 385 -7 l 276 -7 "},"ŵ":{"ha":1375,"x_min":0,"x_max":0,"o":"m 554 1193 l 770 1193 l 867 1276 l 932 1193 l 1127 1193 l 951 1392 l 803 1392 m 276 -7 l 385 -7 l 708 526 l 828 -7 l 939 -7 l 1494 1093 l 1163 1093 l 929 594 l 819 1091 l 789 1091 l 485 593 l 444 1093 l 148 1093 "},"Ẅ":{"ha":1375,"x_min":0,"x_max":0,"o":"m 677 1194 b 595 1287 623 1194 585 1236 b 713 1381 606 1337 659 1381 b 795 1287 768 1381 805 1337 b 677 1194 785 1236 732 1194 m 1004 1194 b 923 1287 950 1194 913 1236 b 1040 1381 932 1337 986 1381 b 1122 1287 1095 1381 1132 1337 b 1004 1194 1112 1236 1059 1194 m 148 1093 l 444 1093 l 485 593 l 789 1091 l 819 1091 l 929 594 l 1163 1093 l 1494 1093 l 939 -7 l 828 -7 l 708 526 l 385 -7 l 276 -7 "},"ẅ":{"ha":1375,"x_min":0,"x_max":0,"o":"m 677 1194 b 795 1287 732 1194 785 1236 b 713 1381 805 1337 768 1381 b 595 1287 659 1381 606 1337 b 677 1194 585 1236 623 1194 m 1004 1194 b 1122 1287 1059 1194 1112 1236 b 1040 1381 1132 1337 1095 1381 b 923 1287 986 1381 932 1337 b 1004 1194 913 1236 950 1194 m 276 -7 l 385 -7 l 708 526 l 828 -7 l 939 -7 l 1494 1093 l 1163 1093 l 929 594 l 819 1091 l 789 1091 l 485 593 l 444 1093 l 148 1093 "},"Ẁ":{"ha":1375,"x_min":0,"x_max":0,"o":"m 694 1412 l 922 1412 l 994 1183 l 811 1183 m 148 1093 l 444 1093 l 485 593 l 789 1091 l 819 1091 l 929 594 l 1163 1093 l 1494 1093 l 939 -7 l 828 -7 l 708 526 l 385 -7 l 276 -7 "},"ẁ":{"ha":1375,"x_min":0,"x_max":0,"o":"m 811 1183 l 994 1183 l 922 1412 l 694 1412 m 276 -7 l 385 -7 l 708 526 l 828 -7 l 939 -7 l 1494 1093 l 1163 1093 l 929 594 l 819 1091 l 789 1091 l 485 593 l 444 1093 l 148 1093 "},"X":{"ha":1043,"x_min":0,"x_max":0,"o":"m 385 577 l 178 1093 l 491 1093 l 589 805 l 798 1093 l 1158 1093 l 734 559 l 949 0 l 633 0 l 528 323 l 298 0 l -65 0 "},"x":{"ha":1043,"x_min":0,"x_max":0,"o":"m -65 0 l 298 0 l 528 323 l 633 0 l 949 0 l 734 559 l 1158 1093 l 798 1093 l 589 805 l 491 1093 l 178 1093 l 385 577 "},"Y":{"ha":954,"x_min":0,"x_max":0,"o":"m 338 450 l 148 1093 l 461 1093 l 530 754 l 726 1093 l 1073 1093 l 634 454 l 546 0 l 250 0 "},"y":{"ha":954,"x_min":0,"x_max":0,"o":"m 250 0 l 546 0 l 634 454 l 1073 1093 l 726 1093 l 530 754 l 461 1093 l 148 1093 l 338 450 "},"Ý":{"ha":954,"x_min":0,"x_max":0,"o":"m 456 1183 l 616 1412 l 844 1412 l 638 1183 m 338 450 l 148 1093 l 461 1093 l 530 754 l 726 1093 l 1073 1093 l 634 454 l 546 0 l 250 0 "},"ý":{"ha":954,"x_min":0,"x_max":0,"o":"m 638 1183 l 844 1412 l 616 1412 l 456 1183 m 250 0 l 546 0 l 634 454 l 1073 1093 l 726 1093 l 530 754 l 461 1093 l 148 1093 l 338 450 "},"Ŷ":{"ha":954,"x_min":0,"x_max":0,"o":"m 592 1392 l 741 1392 l 916 1193 l 722 1193 l 656 1276 l 559 1193 l 343 1193 m 338 450 l 148 1093 l 461 1093 l 530 754 l 726 1093 l 1073 1093 l 634 454 l 546 0 l 250 0 "},"ŷ":{"ha":954,"x_min":0,"x_max":0,"o":"m 343 1193 l 559 1193 l 656 1276 l 722 1193 l 916 1193 l 741 1392 l 592 1392 m 250 0 l 546 0 l 634 454 l 1073 1093 l 726 1093 l 530 754 l 461 1093 l 148 1093 l 338 450 "},"ÿ":{"ha":954,"x_min":0,"x_max":0,"o":"m 467 1194 b 385 1287 412 1194 374 1236 b 503 1381 395 1337 448 1381 b 584 1287 557 1381 594 1337 b 467 1194 574 1236 521 1194 m 793 1194 b 712 1287 739 1194 702 1236 b 829 1381 722 1337 775 1381 b 911 1287 884 1381 921 1337 b 793 1194 901 1236 848 1194 m 338 450 l 148 1093 l 461 1093 l 530 754 l 726 1093 l 1073 1093 l 634 454 l 546 0 l 250 0 "},"Ÿ":{"ha":954,"x_min":0,"x_max":0,"o":"m 467 1194 b 584 1287 521 1194 574 1236 b 503 1381 594 1337 557 1381 b 385 1287 448 1381 395 1337 b 467 1194 374 1236 412 1194 m 793 1194 b 911 1287 848 1194 901 1236 b 829 1381 921 1337 884 1381 b 712 1287 775 1381 722 1337 b 793 1194 702 1236 739 1194 m 250 0 l 546 0 l 634 454 l 1073 1093 l 726 1093 l 530 754 l 461 1093 l 148 1093 l 338 450 "},"Ỳ":{"ha":954,"x_min":0,"x_max":0,"o":"m 484 1412 l 711 1412 l 783 1183 l 600 1183 m 338 450 l 148 1093 l 461 1093 l 530 754 l 726 1093 l 1073 1093 l 634 454 l 546 0 l 250 0 "},"ỳ":{"ha":954,"x_min":0,"x_max":0,"o":"m 600 1183 l 783 1183 l 711 1412 l 484 1412 m 250 0 l 546 0 l 634 454 l 1073 1093 l 726 1093 l 530 754 l 461 1093 l 148 1093 l 338 450 "},"Z":{"ha":909,"x_min":0,"x_max":0,"o":"m 482 822 l 138 822 l 191 1093 l 985 1093 l 481 273 l 825 273 l 772 0 l -22 0 "},"z":{"ha":909,"x_min":0,"x_max":0,"o":"m -22 0 l 772 0 l 825 273 l 481 273 l 985 1093 l 191 1093 l 138 822 l 482 822 "},"Ź":{"ha":909,"x_min":0,"x_max":0,"o":"m 433 1183 l 594 1412 l 821 1412 l 616 1183 m 482 822 l 138 822 l 191 1093 l 985 1093 l 481 273 l 825 273 l 772 0 l -22 0 "},"ź":{"ha":909,"x_min":0,"x_max":0,"o":"m 616 1183 l 821 1412 l 594 1412 l 433 1183 m -22 0 l 772 0 l 825 273 l 481 273 l 985 1093 l 191 1093 l 138 822 l 482 822 "},"Ž":{"ha":909,"x_min":0,"x_max":0,"o":"m 683 1193 l 534 1193 l 359 1392 l 554 1392 l 619 1309 l 716 1392 l 932 1392 m 482 822 l 138 822 l 191 1093 l 985 1093 l 481 273 l 825 273 l 772 0 l -22 0 "},"ž":{"ha":909,"x_min":0,"x_max":0,"o":"m 932 1392 l 716 1392 l 619 1309 l 554 1392 l 359 1392 l 534 1193 l 683 1193 m -22 0 l 772 0 l 825 273 l 481 273 l 985 1093 l 191 1093 l 138 822 l 482 822 "},"Ż":{"ha":909,"x_min":0,"x_max":0,"o":"m 607 1193 b 513 1299 543 1193 502 1241 b 649 1409 524 1358 586 1409 b 743 1300 712 1409 754 1358 b 607 1193 732 1240 669 1193 m 482 822 l 138 822 l 191 1093 l 985 1093 l 481 273 l 825 273 l 772 0 l -22 0 "},"ż":{"ha":909,"x_min":0,"x_max":0,"o":"m 607 1193 b 743 1300 669 1193 732 1240 b 649 1409 754 1358 712 1409 b 513 1299 586 1409 524 1358 b 607 1193 502 1241 543 1193 m -22 0 l 772 0 l 825 273 l 481 273 l 985 1093 l 191 1093 l 138 822 l 482 822 "},"i":{"ha":487,"x_min":0,"x_max":0,"o":"m 229 1093 l 525 1093 l 313 0 l 16 0 "},"ı":{"ha":487,"x_min":0,"x_max":0,"o":"m 229 1093 l 525 1093 l 313 0 l 16 0 "},".":{"ha":485,"x_min":0,"x_max":0,"o":"m 161 -39 b 18 130 64 -39 1 36 b 217 298 35 220 121 298 b 359 130 311 298 375 224 b 161 -39 345 37 258 -39 "},",":{"ha":502,"x_min":0,"x_max":0,"o":"m 65 -260 b -37 -208 1 -260 -40 -228 b 115 -83 10 -208 96 -175 b 115 -33 121 -57 117 -40 b 16 120 54 -33 1 25 b 218 298 32 225 121 298 b 364 66 324 298 388 209 b 65 -260 337 -101 208 -260 "},":":{"ha":476,"x_min":0,"x_max":0,"o":"m 256 473 b 117 637 161 473 100 545 b 310 800 133 725 217 800 b 448 637 401 800 464 728 b 256 473 433 546 350 473 m 162 -7 b 24 157 68 -7 7 65 b 217 321 40 245 123 321 b 355 157 309 321 370 249 b 162 -7 340 66 256 -7 "},";":{"ha":503,"x_min":0,"x_max":0,"o":"m 275 475 b 136 639 181 475 119 547 b 330 803 153 727 237 803 b 468 639 421 803 484 731 b 275 475 453 548 370 475 m 67 -250 b -35 -198 3 -250 -38 -218 b 117 -73 12 -198 98 -165 b 117 -22 123 -47 119 -30 b 18 130 56 -22 3 35 b 220 309 34 235 123 309 b 366 76 326 309 390 219 b 67 -250 339 -91 210 -250 "},"…":{"ha":1730,"x_min":0,"x_max":0,"o":"m 225 -39 b 82 130 129 -39 65 36 b 281 298 99 220 185 298 b 424 130 376 298 439 224 b 225 -39 409 37 322 -39 m 783 -39 b 640 130 686 -39 622 36 b 839 298 656 220 743 298 b 981 130 932 298 997 224 b 783 -39 966 37 880 -39 m 1325 -39 b 1182 130 1229 -39 1165 36 b 1381 298 1199 220 1285 298 b 1524 130 1476 298 1539 224 b 1325 -39 1509 37 1422 -39 "},"!":{"ha":530,"x_min":0,"x_max":0,"o":"m 232 1093 l 563 1093 l 379 382 l 140 382 m 184 -46 b 45 117 90 -46 28 26 b 239 281 61 205 145 281 b 377 117 330 281 392 210 b 184 -46 362 26 278 -46 "},"¡":{"ha":530,"x_min":0,"x_max":0,"o":"m 342 834 b 481 671 435 834 497 762 b 287 507 465 583 380 507 b 149 671 195 507 134 579 b 342 834 163 762 248 834 m 294 -305 l -37 -305 l 146 407 l 386 407 "},"?":{"ha":736,"x_min":0,"x_max":0,"o":"m 189 380 b 197 431 189 389 190 397 b 504 811 235 631 483 734 b 410 892 516 857 481 892 b 216 797 336 892 265 850 l 163 1002 b 484 1140 222 1072 337 1140 b 772 840 691 1140 794 989 b 467 427 737 606 515 619 b 458 381 464 416 457 393 l 189 380 m 248 -46 b 109 117 154 -46 92 26 b 302 281 125 205 209 281 b 441 117 394 281 456 210 b 248 -46 426 26 342 -46 "},"¿":{"ha":736,"x_min":0,"x_max":0,"o":"m 490 862 b 629 699 583 862 645 790 b 435 534 612 610 528 534 b 296 699 343 534 281 606 b 490 862 311 789 395 862 m 549 435 b 541 385 549 427 547 419 b 233 5 502 184 254 81 b 327 -77 221 -41 256 -77 b 521 19 401 -77 472 -35 l 574 -186 b 253 -324 515 -256 400 -324 b -36 -25 46 -324 -58 -174 b 271 389 -1 210 222 197 b 279 435 273 400 280 423 l 549 435 "},"·":{"ha":484,"x_min":0,"x_max":0,"o":"m 239 364 b 96 532 142 364 79 438 b 295 701 113 623 199 701 b 437 532 389 701 453 627 b 239 364 422 439 336 364 "},"•":{"ha":831,"x_min":0,"x_max":0,"o":"m 370 275 b 149 535 217 275 123 390 b 460 798 174 676 302 798 b 682 536 614 798 708 682 b 370 275 655 390 524 275 "},"*":{"ha":612,"x_min":0,"x_max":0,"o":"m 326 801 l 198 694 l 130 832 l 313 896 l 155 956 l 276 1095 l 362 989 l 360 1148 l 541 1148 l 475 989 l 603 1095 l 671 956 l 488 890 l 647 832 l 526 694 l 438 800 l 441 641 l 261 641 "},"#":{"ha":1096,"x_min":0,"x_max":0,"o":"m 899 618 l 841 436 l 968 436 l 905 235 l 777 235 l 702 0 l 468 0 l 543 235 l 362 235 l 288 0 l 53 0 l 127 235 l -2 235 l 62 436 l 192 436 l 250 618 l 120 618 l 185 820 l 314 820 l 401 1093 l 635 1093 l 548 820 l 729 820 l 816 1093 l 1050 1093 l 963 820 l 1090 820 l 1027 618 m 665 618 l 484 618 l 426 436 l 607 436 "},"/":{"ha":738,"x_min":0,"x_max":0,"o":"m 587 1175 l 873 1175 l 203 -81 l -81 -81 "},"\\":{"ha":738,"x_min":0,"x_max":0,"o":"m 534 -81 l -135 1175 l 151 1175 l 819 -81 "},"‥":{"ha":1121,"x_min":0,"x_max":0,"o":"m 225 -39 b 82 130 129 -39 65 36 b 281 298 99 220 185 298 b 424 130 376 298 439 224 b 225 -39 409 37 322 -39 m 716 -39 b 573 130 619 -39 555 36 b 772 298 589 220 676 298 b 915 130 866 298 930 224 b 716 -39 899 37 813 -39 "},"(":{"ha":496,"x_min":0,"x_max":0,"o":"m 133 -81 b 79 568 63 56 37 347 b 376 1175 122 793 208 989 l 597 1175 b 328 568 448 977 370 785 b 354 -81 286 351 300 62 l 133 -81 "},")":{"ha":496,"x_min":0,"x_max":0,"o":"m -47 -81 b 231 568 63 62 189 351 b 198 1175 274 785 271 977 l 418 1175 b 480 568 515 989 524 793 b 174 -81 436 347 297 56 "},"{":{"ha":650,"x_min":0,"x_max":0,"o":"m 319 -81 b 149 120 201 -81 127 3 l 178 281 b 66 500 200 401 146 500 l 95 649 b 292 868 176 649 267 747 l 318 987 b 563 1175 341 1104 431 1175 l 751 1175 l 712 972 l 631 970 b 542 873 584 968 554 928 l 533 829 b 332 575 504 697 413 575 b 430 303 413 575 456 453 l 417 227 b 467 121 406 169 421 121 l 547 121 l 507 -81 l 319 -81 "},"}":{"ha":650,"x_min":0,"x_max":0,"o":"m -47 -81 l -7 121 l 72 121 b 163 227 118 121 151 169 l 180 303 b 382 575 212 453 302 575 b 281 829 302 575 258 697 l 290 873 b 237 970 299 928 284 968 l 157 972 l 197 1175 l 386 1175 b 557 987 517 1175 580 1104 l 536 868 b 649 649 515 747 568 649 l 621 500 b 423 281 540 500 448 401 l 390 120 b 141 -81 366 3 259 -81 "},"[":{"ha":551,"x_min":0,"x_max":0,"o":"m 461 972 l 296 121 l 448 121 l 408 -81 l 0 -81 l 244 1175 l 652 1175 l 613 972 "},"]":{"ha":551,"x_min":0,"x_max":0,"o":"m 361 -81 l -47 -81 l -8 121 l 144 121 l 309 972 l 158 972 l 197 1175 l 605 1175 "},"-":{"ha":644,"x_min":0,"x_max":0,"o":"m 96 655 l 645 655 l 599 417 l 50 417 "},"–":{"ha":1046,"x_min":0,"x_max":0,"o":"m 122 655 l 1022 655 l 975 417 l 75 417 "},"—":{"ha":1389,"x_min":0,"x_max":0,"o":"m 123 655 l 1362 655 l 1316 417 l 77 417 "},"‒":{"ha":720,"x_min":0,"x_max":0,"o":"m 96 655 l 721 655 l 675 417 l 50 417 "},"_":{"ha":840,"x_min":0,"x_max":0,"o":"m -61 93 l 779 93 l 743 -92 l -97 -92 "},"‚":{"ha":422,"x_min":0,"x_max":0,"o":"m 39 -215 b -53 -168 -20 -215 -56 -185 b 85 -54 -11 -168 67 -137 b 84 -7 90 -30 87 -14 b -6 130 29 -7 -20 45 b 178 293 9 227 90 293 b 311 81 275 293 332 212 b 39 -215 286 -70 169 -215 "},"„":{"ha":829,"x_min":0,"x_max":0,"o":"m 39 -217 b -54 -170 -20 -217 -56 -187 b 84 -56 -12 -170 66 -139 b 83 -9 90 -32 86 -16 b -7 128 29 -9 -20 43 b 178 291 9 224 90 291 b 311 79 275 291 332 210 b 39 -217 286 -72 169 -217 m 446 -217 b 354 -170 388 -217 351 -187 b 492 -56 396 -170 474 -139 b 491 -9 497 -32 494 -16 b 401 128 437 -9 387 43 b 585 291 416 224 498 291 b 718 79 682 291 740 210 b 446 -217 694 -72 576 -217 "},"“":{"ha":829,"x_min":0,"x_max":0,"o":"m 399 1114 b 492 1067 458 1114 494 1084 b 354 954 450 1067 372 1036 b 355 907 349 929 352 913 b 445 769 409 907 458 854 b 260 606 429 673 348 606 b 127 818 163 606 106 688 b 399 1114 152 969 269 1114 m 807 1114 b 899 1067 865 1114 902 1084 b 762 954 857 1067 779 1036 b 762 907 756 929 760 913 b 852 769 817 907 866 854 b 668 606 837 673 755 606 b 535 818 571 606 513 688 b 807 1114 559 969 677 1114 "},"”":{"ha":830,"x_min":0,"x_max":0,"o":"m 200 612 b 108 659 141 612 104 642 b 245 773 150 659 228 690 b 245 819 250 797 248 812 b 155 958 190 819 141 871 b 338 1120 170 1053 251 1120 b 472 909 435 1120 493 1038 b 200 612 447 758 330 612 m 608 612 b 515 659 549 612 512 642 b 653 773 557 659 635 690 b 652 819 658 797 655 812 b 562 958 597 819 549 871 b 746 1120 577 1053 659 1120 b 880 909 843 1120 901 1038 b 608 612 854 758 737 612 "},"‘":{"ha":422,"x_min":0,"x_max":0,"o":"m 399 1114 b 492 1067 458 1114 494 1084 b 354 954 450 1067 372 1036 b 355 907 349 929 352 913 b 445 769 409 907 458 854 b 260 606 429 673 348 606 b 127 818 163 606 106 688 b 399 1114 152 969 269 1114 "},"’":{"ha":422,"x_min":0,"x_max":0,"o":"m 201 618 b 109 666 142 618 106 648 b 247 780 151 666 229 696 b 246 826 252 804 249 819 b 156 964 191 826 142 878 b 340 1126 171 1060 252 1126 b 473 916 437 1126 494 1045 b 201 618 448 764 331 618 "},"‛":{"ha":422,"x_min":0,"x_max":0,"o":"m 304 621 b 147 918 174 621 113 767 b 362 1129 176 1048 265 1129 b 483 967 450 1129 505 1063 b 340 829 463 881 394 829 b 321 783 334 822 325 806 b 414 669 306 699 372 669 b 304 621 410 651 362 621 "},"«":{"ha":928,"x_min":0,"x_max":0,"o":"m 326 539 l 441 206 l 262 172 l 78 563 l 404 901 l 590 866 m 705 539 l 821 206 l 642 172 l 458 563 l 784 901 l 970 866 "},"»":{"ha":928,"x_min":0,"x_max":0,"o":"m 498 394 l 172 56 l -14 91 l 251 418 l 135 751 l 313 785 m 878 394 l 552 56 l 366 91 l 631 418 l 515 751 l 693 785 "},"‹":{"ha":548,"x_min":0,"x_max":0,"o":"m 326 539 l 441 206 l 262 172 l 78 563 l 404 901 l 590 866 "},"›":{"ha":548,"x_min":0,"x_max":0,"o":"m 498 395 l 172 58 l -14 92 l 251 418 l 135 751 l 314 787 "},"\"":{"ha":729,"x_min":0,"x_max":0,"o":"m 186 1121 l 478 1121 l 339 731 l 174 731 m 530 1121 l 821 1121 l 682 731 l 516 731 "},"'":{"ha":386,"x_min":0,"x_max":0,"o":"m 186 1121 l 477 1121 l 339 731 l 173 731 "},"　":{"ha":1493,"x_min":0,"x_max":0,"o":""}," ":{"ha":6719,"x_min":0,"x_max":0,"o":""}," ":{"ha":1493,"x_min":0,"x_max":0,"o":""}," ":{"ha":1493,"x_min":0,"x_max":0,"o":""}," ":{"ha":747,"x_min":0,"x_max":0,"o":""}," ":{"ha":747,"x_min":0,"x_max":0,"o":""}," ":{"ha":1015,"x_min":0,"x_max":0,"o":""}," ":{"ha":374,"x_min":0,"x_max":0,"o":""}," ":{"ha":214,"x_min":0,"x_max":0,"o":""}," ":{"ha":350,"x_min":0,"x_max":0,"o":""}," ":{"ha":485,"x_min":0,"x_max":0,"o":""}," ":{"ha":249,"x_min":0,"x_max":0,"o":""}," ":{"ha":299,"x_min":0,"x_max":0,"o":""}," ":{"ha":498,"x_min":0,"x_max":0,"o":""},"​":{"ha":0,"x_min":0,"x_max":0,"o":""},"‍":{"ha":0,"x_min":0,"x_max":0,"o":""},"‌":{"ha":0,"x_min":0,"x_max":0,"o":""},"":{"ha":1453,"x_min":0,"x_max":0,"o":""},"฿":{"ha":941,"x_min":0,"x_max":0,"o":"m 717 616 b 897 330 823 614 925 509 b 477 0 867 144 711 1 l 446 -159 l 216 -159 l 247 0 l 16 0 l 229 1093 l 439 1093 l 465 1226 l 695 1226 l 667 1086 b 869 808 812 1057 892 948 b 717 616 852 705 790 632 m 436 669 l 486 669 b 610 753 539 669 597 688 b 517 841 620 804 585 841 l 469 841 m 616 361 b 512 471 630 426 585 471 l 397 471 l 357 264 l 469 264 b 616 361 553 264 605 303 "},"₿":{"ha":941,"x_min":0,"x_max":0,"o":"m 717 616 b 897 330 823 614 925 509 b 570 9 871 170 752 42 l 537 -159 l 378 -159 l 410 0 l 341 0 l 310 -159 l 151 -159 l 182 0 l 16 0 l 229 1093 l 365 1093 l 391 1226 l 549 1226 l 523 1093 l 588 1093 l 592 1093 l 618 1226 l 777 1226 l 743 1061 b 869 808 840 1014 888 921 b 717 616 852 705 790 632 m 436 669 l 486 669 b 610 753 539 669 597 688 b 517 841 620 804 585 841 l 469 841 m 616 361 b 512 471 630 426 585 471 l 397 471 l 357 264 l 469 264 b 616 361 553 264 605 303 "},"¢":{"ha":821,"x_min":0,"x_max":0,"o":"m 470 1072 l 707 1072 l 672 894 l 435 890 m 292 123 l 528 119 l 491 -73 l 254 -73 "},"¤":{"ha":869,"x_min":0,"x_max":0,"o":"m 776 547 b 696 382 765 488 736 431 l 791 268 l 671 170 l 575 283 b 410 241 525 256 469 241 b 247 291 347 241 291 259 l 102 174 l 22 274 l 166 391 b 151 544 146 435 140 488 b 230 710 161 602 189 661 l 136 825 l 256 925 l 349 810 b 515 852 399 836 455 852 b 676 806 577 852 632 836 l 820 922 l 902 821 l 760 706 b 776 547 781 660 787 605 m 560 548 b 471 644 570 610 519 644 b 365 547 413 644 372 596 b 450 449 355 490 395 449 b 560 548 509 449 552 498 "},"$":{"ha":860,"x_min":0,"x_max":0,"o":"m 599 639 b 798 287 739 555 828 448 b 475 -7 770 133 653 22 l 446 -159 l 216 -159 l 248 1 b -2 203 124 33 39 109 l 195 374 b 395 250 239 299 314 250 b 503 317 434 250 493 267 b 344 484 517 382 428 433 b 161 830 214 564 128 674 b 439 1095 188 960 299 1059 l 465 1226 l 695 1226 l 669 1093 b 876 920 766 1065 844 1000 l 683 754 b 536 844 656 808 598 844 b 443 780 484 844 449 814 b 599 639 432 724 524 684 "},"€":{"ha":1200,"x_min":0,"x_max":0,"o":"m 720 252 b 962 352 802 252 881 288 l 1092 123 b 673 -24 975 26 815 -24 b 201 396 396 -24 224 155 l 45 396 l 83 526 l 201 526 b 206 560 203 537 204 549 l 208 573 l 80 573 l 118 703 l 244 703 b 881 1116 355 986 639 1136 b 1244 897 1034 1103 1174 1021 l 1033 705 b 817 838 972 797 901 838 b 567 703 720 838 627 786 l 929 703 l 892 573 l 507 573 b 505 559 507 568 505 564 b 499 526 503 548 500 536 l 875 526 l 838 396 l 511 396 b 720 252 541 311 612 252 "},"ƒ":{"ha":927,"x_min":0,"x_max":0,"o":"m 889 849 b 677 639 809 849 759 840 l 895 639 l 865 483 l 616 483 l 574 375 b 79 4 464 96 370 4 l -50 4 l 1 263 l 96 263 b 312 482 176 263 230 273 l 312 483 l 94 483 l 124 639 l 373 639 l 410 735 b 910 1108 526 1030 623 1108 l 1035 1108 l 984 849 l 889 849 "},"₣":{"ha":805,"x_min":0,"x_max":0,"o":"m 472 823 l 438 646 l 749 646 l 702 404 l 391 404 l 375 323 l 585 323 l 549 139 l 339 139 l 312 -1 l 16 -1 l 43 139 l -45 139 l -9 323 l 79 323 l 229 1096 l 910 1096 l 857 823 "},"₭":{"ha":1005,"x_min":0,"x_max":0,"o":"m 773 665 l 968 665 l 925 444 l 726 444 l 916 0 l 597 0 l 410 444 l 399 444 l 313 0 l 16 0 l 102 444 l 11 444 l 54 665 l 145 665 l 229 1093 l 525 1093 l 446 689 l 756 1093 l 1109 1093 "},"₤":{"ha":829,"x_min":0,"x_max":0,"o":"m 442 376 b 382 245 433 334 414 286 l 749 245 l 702 0 l -32 0 l 16 245 l 93 245 b 152 376 123 290 142 332 l 46 376 l 71 501 l 160 501 b 157 549 159 517 158 532 l 79 549 l 104 674 l 156 674 b 163 725 157 690 159 707 b 600 1104 202 952 371 1104 b 871 940 738 1104 836 1037 l 689 808 b 598 858 674 840 644 858 b 451 683 509 858 470 789 b 450 674 450 680 450 677 l 637 674 l 612 549 l 444 549 b 447 501 445 532 446 517 l 603 501 l 578 376 l 442 376 "},"₦":{"ha":1138,"x_min":0,"x_max":0,"o":"m 1138 444 l 1029 444 l 941 -11 l 842 -11 l 434 524 l 332 -1 l 36 -1 l 122 444 l 14 444 l 58 665 l 165 665 l 251 1104 l 352 1104 l 758 571 l 859 1095 l 1156 1095 l 1073 665 l 1181 665 "},"₱":{"ha":1121,"x_min":0,"x_max":0,"o":"m 1024 724 b 1021 700 1023 716 1023 708 l 1020 690 l 1147 690 l 1114 514 l 951 514 b 531 322 869 393 723 322 l 451 322 l 389 0 l 92 0 l 192 514 l 50 514 l 84 690 l 227 690 l 233 724 l 91 724 l 125 901 l 267 901 l 304 1093 l 680 1093 b 1001 901 829 1093 951 1023 l 1189 901 l 1154 724 l 1024 724 m 744 702 b 629 825 755 776 709 825 l 549 825 l 503 590 l 583 589 b 744 702 678 589 733 633 "},"₽":{"ha":1063,"x_min":0,"x_max":0,"o":"m 730 1093 b 1077 724 926 1093 1116 963 b 606 370 1043 513 856 370 l 470 370 l 457 302 l 733 302 l 698 119 l 421 119 l 398 0 l 108 0 l 131 119 l -8 119 l 27 302 l 167 302 l 181 376 l 42 376 l 82 583 l 222 583 l 321 1093 l 730 1093 m 795 719 b 682 825 805 781 758 825 l 559 825 l 519 624 l 642 623 b 795 719 730 623 785 660 "},"₨":{"ha":893,"x_min":0,"x_max":0,"o":"m 827 879 b 839 807 833 857 838 832 l 957 807 l 903 658 l 819 658 b 500 375 768 506 637 368 l 760 -1 l 433 -1 l 125 499 l 134 544 l 321 543 b 524 658 423 543 492 591 l 157 658 l 211 807 l 530 807 b 387 879 508 850 461 879 l 186 879 l 264 1093 l 1010 1093 l 932 879 l 827 879 "},"£":{"ha":829,"x_min":0,"x_max":0,"o":"m 444 383 b 387 245 435 338 416 289 l 749 245 l 702 0 l -32 0 l 16 245 l 93 245 b 155 389 126 294 146 340 b 159 416 157 398 158 407 l 55 416 l 90 593 l 155 593 b 163 725 153 633 154 675 b 593 1104 205 973 382 1104 b 871 940 721 1104 831 1045 l 689 808 b 598 858 674 840 644 858 b 451 683 509 858 470 789 b 443 593 445 650 443 621 l 622 593 l 587 416 l 448 416 b 444 383 447 405 446 394 "},"₸":{"ha":834,"x_min":0,"x_max":0,"o":"m 939 1093 l 892 855 l 116 855 l 162 1093 m 834 553 l 588 553 l 484 0 l 193 0 l 298 553 l 58 553 l 104 791 l 880 791 "},"₮":{"ha":872,"x_min":0,"x_max":0,"o":"m 650 822 l 627 707 l 786 774 l 754 610 l 595 542 l 583 476 l 741 544 l 709 378 l 550 311 l 490 0 l 193 0 l 227 172 l 67 104 l 99 269 l 258 337 l 271 404 l 112 335 l 144 500 l 304 568 l 353 822 l 110 822 l 162 1093 l 945 1093 l 892 822 "},"₩":{"ha":1375,"x_min":0,"x_max":0,"o":"m 1274 659 l 1400 659 l 1357 435 l 1162 435 l 939 -7 l 828 -7 l 708 526 l 385 -7 l 276 -7 l 224 435 l 30 435 l 74 659 l 199 659 l 148 1093 l 444 1093 l 485 593 l 789 1091 l 819 1091 l 929 594 l 1163 1093 l 1494 1093 "},"¥":{"ha":1020,"x_min":0,"x_max":0,"o":"m 796 642 l 979 642 l 941 450 l 667 450 l 653 382 l 928 382 l 890 190 l 616 190 l 579 0 l 283 0 l 321 190 l 36 190 l 74 382 l 358 382 l 372 450 l 372 450 l 87 450 l 124 642 l 315 642 l 181 1093 l 494 1093 l 563 754 l 760 1093 l 1106 1093 "},"+":{"ha":876,"x_min":0,"x_max":0,"o":"m 783 418 l 570 418 l 522 169 l 262 169 l 310 418 l 97 418 l 144 662 l 357 662 l 406 910 l 666 910 l 618 662 l 831 662 "},"−":{"ha":869,"x_min":0,"x_max":0,"o":"m 145 662 l 824 662 l 777 418 l 98 418 "},"×":{"ha":1001,"x_min":0,"x_max":0,"o":"m 696 518 l 867 305 l 679 142 l 507 357 l 235 127 l 78 319 l 353 551 l 181 766 l 369 929 l 542 712 l 817 945 l 973 752 "},"÷":{"ha":1078,"x_min":0,"x_max":0,"o":"m 589 722 b 453 888 497 721 435 797 b 652 1054 471 979 562 1054 b 790 888 744 1054 807 976 b 589 722 772 799 681 722 m 140 635 l 1027 635 l 983 409 l 96 409 m 444 -19 b 309 149 354 -19 291 57 b 509 314 327 241 420 314 b 646 148 600 314 663 237 b 444 -19 629 60 537 -19 "},"=":{"ha":884,"x_min":0,"x_max":0,"o":"m 178 831 l 871 831 l 827 605 l 134 605 m 106 460 l 800 460 l 755 235 l 62 235 "},"≠":{"ha":884,"x_min":0,"x_max":0,"o":"m 599 603 l 521 458 l 799 458 l 755 233 l 400 233 l 286 22 l 106 22 l 220 233 l 62 233 l 105 458 l 341 458 l 419 603 l 134 603 l 178 829 l 541 829 l 661 1053 l 840 1053 l 720 829 l 871 829 l 827 603 "},">":{"ha":865,"x_min":0,"x_max":0,"o":"m 800 557 l 797 544 l 36 102 l 102 397 l 428 556 l 167 735 l 216 985 "},"<":{"ha":865,"x_min":0,"x_max":0,"o":"m 818 696 l 491 536 l 753 357 l 703 108 l 120 535 l 123 549 l 884 990 "},"≥":{"ha":883,"x_min":0,"x_max":0,"o":"m 848 714 l 845 703 l 84 351 l 150 586 l 476 713 l 215 857 l 264 1057 m 65 241 l 708 241 l 672 58 l 29 58 "},"≤":{"ha":883,"x_min":0,"x_max":0,"o":"m 848 821 l 522 693 l 783 551 l 734 351 l 151 692 l 153 703 l 914 1057 m 72 241 l 715 241 l 679 58 l 36 58 "},"±":{"ha":810,"x_min":0,"x_max":0,"o":"m 789 793 l 747 576 l 568 576 l 530 376 l 269 376 l 307 576 l 128 576 l 170 793 l 350 793 l 385 975 l 646 975 l 610 793 m 75 302 l 694 302 l 655 100 l 36 100 "},"≈":{"ha":944,"x_min":0,"x_max":0,"o":"m 138 629 b 429 865 209 812 334 865 b 670 751 570 865 596 751 b 774 861 717 751 749 800 l 927 808 b 635 571 854 618 727 571 b 396 686 495 571 471 686 b 292 576 348 686 317 637 m 65 252 b 356 488 136 435 260 488 b 597 374 496 488 522 374 b 701 484 643 374 675 422 l 854 431 b 562 195 781 242 653 195 b 323 309 421 195 397 309 b 218 199 275 309 243 260 "},"~":{"ha":1164,"x_min":0,"x_max":0,"o":"m 100 435 b 463 726 189 661 339 726 b 781 585 644 726 685 585 b 919 720 841 585 886 646 l 1118 655 b 755 364 1025 422 873 364 b 438 505 574 364 534 505 b 300 370 376 505 332 445 "},"¬":{"ha":1015,"x_min":0,"x_max":0,"o":"m 942 522 l 933 475 l 892 262 l 626 262 l 667 475 l 109 475 l 159 732 l 983 732 l 962 623 "},"^":{"ha":659,"x_min":0,"x_max":0,"o":"m 499 741 l 433 884 l 313 741 l 79 741 l 451 1137 l 490 1137 l 709 741 "},"∅":{"ha":1033,"x_min":0,"x_max":0,"o":"m 909 854 b 998 525 986 774 1022 659 b 467 77 956 284 736 77 b 287 113 400 77 339 90 l 186 -7 l -24 -7 l 158 210 b 85 522 92 289 63 399 b 614 970 127 766 349 970 b 774 942 673 970 726 960 l 897 1087 l 1105 1087 m 277 522 b 299 378 267 468 276 418 l 630 770 b 579 775 614 774 597 775 b 277 522 425 775 300 656 m 802 522 b 768 687 814 585 800 643 l 427 280 b 501 271 450 274 475 271 b 802 522 658 271 779 390 "},"∞":{"ha":1645,"x_min":0,"x_max":0,"o":"m 1300 958 b 1622 536 1534 958 1666 764 b 1158 141 1579 314 1385 141 b 810 331 1009 141 884 216 b 399 141 690 212 541 141 b 78 563 166 141 34 334 b 541 958 119 777 306 958 b 890 768 691 958 816 883 b 1300 958 1010 888 1160 958 m 450 372 b 738 549 550 372 659 459 b 505 726 688 651 600 726 b 307 549 407 726 323 646 b 450 372 290 448 357 372 m 1394 549 b 1251 726 1410 647 1348 726 b 962 549 1147 726 1038 637 b 1196 372 1010 451 1099 372 b 1394 549 1295 372 1378 456 "},"∫":{"ha":802,"x_min":0,"x_max":0,"o":"m -45 31 l 18 31 b 169 146 96 31 149 85 l 475 1053 b 831 1289 529 1213 657 1289 l 945 1289 l 899 1055 l 836 1055 b 687 939 760 1055 707 1001 l 381 33 b 23 -203 327 -127 199 -203 l -90 -203 "},"∏":{"ha":1006,"x_min":0,"x_max":0,"o":"m 1109 1080 l 977 1080 l 734 -170 l 471 -170 l 713 1080 l 564 1080 l 320 -170 l 56 -170 l 300 1080 l 159 1080 l 206 1322 l 1156 1322 "},"∑":{"ha":1020,"x_min":0,"x_max":0,"o":"m 1081 1063 l 559 1063 l 764 542 l 764 536 l 388 56 l 884 55 l 837 -186 l -101 -186 l -94 -149 l 477 578 l 187 1294 l 189 1305 l 1128 1305 "},"√":{"ha":859,"x_min":0,"x_max":0,"o":"m 1273 1252 l 1000 1252 l 283 -51 l 268 -51 l 108 888 l 341 888 l 376 575 l 867 1494 l 1320 1494 "},"µ":{"ha":998,"x_min":0,"x_max":0,"o":""},"∂":{"ha":925,"x_min":0,"x_max":0,"o":"m 399 -27 b 41 370 123 -27 9 175 b 436 722 71 562 235 722 b 656 585 544 722 644 666 b 374 962 671 754 554 884 l 604 1111 b 886 456 772 1045 949 827 b 399 -27 842 188 681 -27 m 425 208 b 584 344 507 208 568 269 b 473 498 602 428 557 498 b 311 353 391 498 325 433 b 425 208 296 275 338 208 "},"%":{"ha":1234,"x_min":0,"x_max":0,"o":"m 356 595 b 134 850 208 595 109 706 b 436 1106 157 984 281 1106 b 658 850 584 1106 683 996 b 356 595 635 715 511 595 m 984 1094 l 1225 1094 l 298 0 l 56 0 m 382 764 b 486 850 433 764 477 804 b 409 936 494 899 458 936 b 304 850 358 936 312 896 b 382 764 296 801 332 764 m 853 -14 b 631 242 705 -14 606 98 b 932 498 654 378 778 498 b 1155 243 1080 498 1180 388 b 853 -14 1132 109 1008 -14 m 878 156 b 982 242 930 156 975 197 b 906 328 990 290 955 328 b 801 243 854 328 809 288 b 878 156 792 193 828 156 "},"‰":{"ha":1809,"x_min":0,"x_max":0,"o":"m 356 595 b 134 850 208 595 109 706 b 436 1106 157 984 281 1106 b 658 850 584 1106 683 996 b 356 595 635 715 511 595 m 984 1094 l 1225 1094 l 298 0 l 56 0 m 382 764 b 486 850 433 764 477 804 b 409 936 494 899 458 936 b 304 850 358 936 312 896 b 382 764 296 801 332 764 m 853 -14 b 631 242 705 -14 606 98 b 932 498 654 378 778 498 b 1155 243 1080 498 1180 388 b 853 -14 1132 109 1008 -14 m 1428 -14 b 1205 242 1280 -14 1180 98 b 1506 498 1228 378 1352 498 b 1729 243 1655 498 1754 388 b 1428 -14 1706 109 1583 -14 m 878 156 b 982 242 930 156 975 197 b 906 328 990 290 955 328 b 801 243 854 328 809 288 b 878 156 792 193 828 156 m 1452 156 b 1556 242 1504 156 1549 197 b 1480 328 1565 290 1529 328 b 1375 243 1429 328 1383 288 b 1452 156 1367 193 1402 156 "},"↑":{"ha":1457,"x_min":0,"x_max":0,"o":"m 1089 538 l 903 727 l 903 -96 l 656 -96 l 656 728 l 469 538 l 339 669 l 779 1123 l 1220 669 "},"↗":{"ha":1457,"x_min":0,"x_max":0,"o":"m 1178 955 l 1168 321 l 983 321 l 985 587 l 404 5 l 229 180 l 810 762 l 545 760 l 545 945 "},"→":{"ha":1457,"x_min":0,"x_max":0,"o":"m 1373 524 l 918 84 l 787 214 l 977 401 l 153 401 l 153 648 l 977 648 l 787 834 l 918 965 "},"↘":{"ha":1457,"x_min":0,"x_max":0,"o":"m 582 277 l 848 275 l 265 857 l 441 1032 l 1023 450 l 1021 715 l 1205 715 l 1215 83 l 582 93 "},"↓":{"ha":1457,"x_min":0,"x_max":0,"o":"m 1164 380 l 723 -75 l 283 380 l 413 511 l 600 321 l 600 1145 l 847 1145 l 847 321 l 1033 511 "},"↙":{"ha":1457,"x_min":0,"x_max":0,"o":"m 694 294 l 959 296 l 959 111 l 326 101 l 336 734 l 521 734 l 519 469 l 1101 1050 l 1276 876 "},"←":{"ha":1457,"x_min":0,"x_max":0,"o":"m 1349 401 l 526 401 l 715 214 l 585 84 l 130 524 l 585 965 l 715 834 l 526 648 l 1349 648 "},"↖":{"ha":1457,"x_min":0,"x_max":0,"o":"m 1058 -2 l 476 581 l 478 315 l 294 315 l 283 948 l 917 938 l 917 753 l 652 755 l 1234 173 "},"↔":{"ha":1457,"x_min":0,"x_max":0,"o":"m 1436 524 l 981 84 l 850 214 l 1040 401 l 463 401 l 652 214 l 522 84 l 67 524 l 522 965 l 652 834 l 463 648 l 1040 648 l 850 834 l 981 965 "},"↕":{"ha":1457,"x_min":0,"x_max":0,"o":"m 747 -183 l 307 272 l 437 402 l 623 213 l 623 789 l 437 600 l 307 731 l 747 1185 l 1187 731 l 1057 600 l 871 789 l 871 213 l 1057 402 l 1187 272 "},"◊":{"ha":884,"x_min":0,"x_max":0,"o":"m 159 528 l 566 1052 l 772 528 l 362 5 m 587 549 l 516 736 l 343 508 l 412 321 "},"@":{"ha":1611,"x_min":0,"x_max":0,"o":"m 626 -296 b 35 330 216 -296 -5 -33 b 977 1135 84 771 494 1135 b 1586 527 1399 1135 1630 857 b 1027 -23 1550 260 1335 -23 b 837 223 851 -23 812 69 b 658 114 817 159 739 114 b 479 393 522 114 454 240 b 809 709 509 563 642 711 b 945 602 908 709 952 657 l 1000 698 l 1186 698 l 1059 289 b 1050 257 1057 281 1053 270 b 1084 174 1042 219 1038 174 b 1287 486 1174 174 1261 347 b 937 877 1329 713 1204 877 b 323 359 599 877 362 622 b 656 -50 288 119 427 -50 b 798 -30 709 -50 751 -47 l 808 -266 b 626 -296 764 -284 712 -296 m 766 307 b 886 430 822 307 873 367 b 830 515 895 477 879 515 b 707 393 772 515 718 459 b 766 307 699 338 725 307 "},"&":{"ha":1120,"x_min":0,"x_max":0,"o":"m 1005 -14 b 743 76 929 -14 836 20 b 416 -24 654 10 546 -24 b 36 347 136 -24 -5 136 b 269 621 60 472 140 564 b 245 823 245 690 235 758 b 634 1125 273 994 434 1125 b 931 863 821 1125 939 1011 l 671 799 b 596 895 673 849 654 895 b 505 810 560 895 515 871 b 704 445 486 707 581 562 b 749 576 721 486 735 530 l 1024 580 b 918 286 997 467 962 369 b 1059 239 970 258 1019 241 m 439 216 b 534 235 475 216 507 222 b 365 432 471 294 412 362 b 304 336 333 406 312 374 b 439 216 293 273 331 216 "},"¶":{"ha":1102,"x_min":0,"x_max":0,"o":"m 818 1119 l 587 -69 l 390 -69 l 490 449 b 214 812 302 451 176 609 b 625 1119 249 993 397 1119 m 1105 1119 l 873 -75 l 677 -75 l 909 1119 "},"§":{"ha":916,"x_min":0,"x_max":0,"o":"m 639 786 b 806 537 791 709 820 628 b 706 365 795 463 760 406 b 739 201 739 322 752 269 b 376 -60 707 41 560 -60 b 75 93 231 -60 100 7 l 222 257 b 422 164 248 212 337 164 b 496 200 460 164 490 174 b 366 307 503 240 432 275 b 193 569 254 363 169 450 b 304 729 205 630 245 686 b 262 916 264 782 247 845 b 595 1138 290 1054 431 1138 b 872 1007 730 1138 848 1078 l 711 855 b 563 916 686 889 622 916 b 496 884 524 916 500 905 b 639 786 490 852 566 824 m 403 568 b 554 471 399 528 481 504 b 597 511 580 479 595 493 b 460 614 604 555 519 588 b 403 568 425 606 406 588 "},"©":{"ha":1200,"x_min":0,"x_max":0,"o":"m 546 -61 b 66 496 214 -61 24 189 b 686 1040 109 804 364 1040 b 1166 484 1013 1040 1209 796 b 546 -61 1122 175 868 -61 m 557 68 b 1038 484 802 68 1002 254 b 675 911 1073 715 928 911 b 195 496 427 911 229 723 b 557 68 159 266 303 68 m 570 168 b 304 515 385 168 269 322 b 665 820 338 696 490 820 b 869 732 755 820 820 787 l 740 585 b 640 625 718 609 680 625 b 500 511 571 625 515 580 b 606 362 484 433 530 362 b 703 401 641 362 671 376 l 787 250 b 570 168 728 195 649 168 "},"®":{"ha":765,"x_min":0,"x_max":0,"o":"m 425 1093 b 693 775 624 1093 722 947 b 340 483 664 602 520 483 b 73 802 142 483 43 628 b 425 1093 103 982 250 1093 m 614 781 b 415 1022 636 914 557 1022 b 151 795 279 1022 172 924 b 350 555 130 664 208 555 b 614 781 481 555 592 648 m 410 945 b 506 840 473 945 517 904 b 436 758 499 800 472 770 l 500 638 l 410 638 l 354 756 l 331 638 l 248 638 l 307 945 l 410 945 m 364 812 l 387 811 b 425 840 407 811 422 823 b 398 871 427 858 415 871 l 376 871 "},"™":{"ha":925,"x_min":0,"x_max":0,"o":"m 944 1097 l 853 629 l 727 629 l 762 808 l 612 637 l 611 637 l 532 806 l 498 629 l 372 629 l 463 1097 l 519 1097 l 642 831 l 877 1097 m 298 978 l 230 629 l 104 629 l 172 978 l 68 978 l 91 1093 l 423 1093 l 401 978 "},"°":{"ha":500,"x_min":0,"x_max":0,"o":"m 326 735 b 145 926 209 735 129 814 b 377 1118 161 1034 257 1118 b 557 926 494 1118 573 1039 b 326 735 541 819 445 735 m 344 853 b 433 928 397 853 428 891 b 358 1002 437 970 404 1002 b 269 926 309 1002 274 966 b 344 853 264 882 298 853 "},"|":{"ha":441,"x_min":0,"x_max":0,"o":"m 290 1255 l 472 1255 l 168 -305 l -14 -305 "},"¦":{"ha":441,"x_min":0,"x_max":0,"o":"m 285 1255 l 467 1255 l 337 587 l 155 587 m 113 373 l 296 373 l 163 -305 l -19 -305 "},"†":{"ha":484,"x_min":0,"x_max":0,"o":"m 553 833 l 411 833 l 249 0 l 78 0 l 239 833 l 98 833 l 124 967 l 266 967 l 295 1119 l 467 1119 l 437 967 l 579 967 "},"‡":{"ha":484,"x_min":0,"x_max":0,"o":"m 411 833 l 304 283 l 446 283 l 420 149 l 278 149 l 249 0 l 78 0 l 106 149 l -36 149 l -9 283 l 133 283 l 239 833 l 98 833 l 124 967 l 266 967 l 295 1119 l 467 1119 l 437 967 l 579 967 l 553 833 "},"℮":{"ha":1329,"x_min":0,"x_max":0,"o":"m 715 -22 b 83 544 386 -22 83 222 b 719 1109 83 859 376 1109 b 1305 591 1052 1109 1305 874 b 1300 505 1305 562 1303 524 l 286 505 l 286 236 b 713 59 408 112 569 59 b 1166 284 930 59 1115 176 l 1250 284 b 715 -22 1187 142 984 -22 m 1117 581 l 1117 868 b 719 1029 1016 969 884 1029 b 286 854 553 1029 401 968 l 286 581 "},"ʼ":{"ha":334,"x_min":0,"x_max":0,"o":"m 203 1119 l 458 1119 l 293 743 l 79 743 "},"̈":{"ha":0,"x_min":0,"x_max":0,"o":"m -418 915 b -500 1008 -473 915 -510 957 b -382 1102 -490 1058 -436 1102 b -300 1008 -328 1102 -290 1058 b -418 915 -311 957 -363 915 m -91 915 b -172 1008 -145 915 -182 957 b -55 1102 -163 1058 -109 1102 b 28 1008 -1 1102 37 1058 b -91 915 18 957 -37 915 "},"̇":{"ha":0,"x_min":0,"x_max":0,"o":"m -245 913 b -338 1020 -309 913 -350 962 b -203 1129 -328 1078 -266 1129 b -109 1021 -140 1129 -98 1078 b -245 913 -120 961 -182 913 "},"̀":{"ha":0,"x_min":0,"x_max":0,"o":"m -321 1133 l -94 1133 l -22 904 l -205 904 "},"́":{"ha":0,"x_min":0,"x_max":0,"o":"m -366 904 l -205 1133 l 22 1133 l -184 904 "},"̋":{"ha":0,"x_min":0,"x_max":0,"o":"m -473 1133 l -271 1133 l -448 904 l -611 904 m -164 1133 l 63 1133 l -178 904 l -350 904 "},"̂":{"ha":0,"x_min":0,"x_max":0,"o":"m -313 1112 l -164 1112 l 12 913 l -183 913 l -248 996 l -345 913 l -562 913 "},"̌":{"ha":0,"x_min":0,"x_max":0,"o":"m -238 913 l -387 913 l -562 1112 l -367 1112 l -302 1029 l -205 1112 l 12 1112 "},"̆":{"ha":0,"x_min":0,"x_max":0,"o":"m -245 909 b -431 1114 -374 909 -452 1003 l -301 1114 b -229 1023 -311 1062 -279 1023 b -124 1114 -177 1023 -134 1060 l 6 1114 b -245 909 -17 990 -113 909 "},"̊":{"ha":0,"x_min":0,"x_max":0,"o":"m -198 878 b -336 1037 -293 878 -352 949 b -144 1196 -321 1127 -237 1196 b -8 1037 -55 1196 7 1128 b -198 878 -23 950 -103 878 m -183 978 b -111 1036 -150 978 -118 1003 b -161 1095 -105 1068 -127 1095 b -233 1036 -195 1095 -227 1069 b -183 978 -239 1004 -218 978 "},"̃":{"ha":0,"x_min":0,"x_max":0,"o":"m -626 961 b -399 1143 -570 1103 -477 1143 b -201 1055 -286 1143 -260 1055 b -114 1139 -163 1055 -134 1093 l 11 1099 b -216 917 -47 954 -143 917 b -415 1005 -330 917 -355 1005 b -501 920 -454 1005 -481 967 "},"̄":{"ha":0,"x_min":0,"x_max":0,"o":"m -435 1078 l 11 1078 l -16 942 l -461 942 "},"̒":{"ha":0,"x_min":0,"x_max":0,"o":"m -176 1229 b -109 1198 -132 1229 -106 1209 b -218 1120 -140 1198 -207 1177 b -216 1089 -222 1103 -220 1095 b -142 998 -172 1089 -133 1051 b -283 890 -153 939 -214 890 b -387 1031 -355 890 -401 945 b -176 1229 -370 1133 -279 1229 "},"̦":{"ha":0,"x_min":0,"x_max":0,"o":"m -339 -419 b -407 -388 -383 -419 -408 -399 b -296 -311 -375 -388 -308 -368 b -299 -279 -293 -294 -295 -286 b -373 -189 -343 -279 -382 -241 b -231 -81 -362 -130 -301 -81 b -128 -221 -160 -81 -114 -135 b -339 -419 -145 -323 -235 -419 "},"̧":{"ha":0,"x_min":0,"x_max":0,"o":"m -422 -233 b -235 -180 -290 -233 -239 -210 b -275 -149 -234 -169 -239 -149 b -309 -154 -284 -149 -295 -151 l -337 -113 l -210 28 l -81 28 l -163 -59 b -146 -58 -157 -59 -153 -58 b -49 -174 -85 -58 -43 -109 b -368 -389 -59 -286 -205 -391 "},"̨":{"ha":0,"x_min":0,"x_max":0,"o":"m -73 -372 b -203 -387 -121 -382 -164 -387 b -421 -218 -345 -387 -421 -323 b -216 23 -421 -101 -328 -7 l -85 0 b -219 -157 -179 -69 -219 -111 b -180 -201 -219 -180 -208 -201 b -99 -189 -165 -201 -134 -197 l -73 -372 "},"̵":{"ha":0,"x_min":0,"x_max":0,"o":"m -589 582 l 5 582 l -25 426 l -619 426 "},"̶":{"ha":0,"x_min":0,"x_max":0,"o":"m -766 582 l 304 582 l 274 426 l -795 426 "},"̷":{"ha":0,"x_min":0,"x_max":0,"o":"m -498 814 l 86 1161 l 45 950 l -538 604 "},"̸":{"ha":0,"x_min":0,"x_max":0,"o":"m -83 877 l 102 877 l -735 -76 l -922 -76 "},"¨":{"ha":466,"x_min":0,"x_max":0,"o":"m 48 915 b -34 1008 -7 915 -44 957 b 84 1102 -24 1058 30 1102 b 165 1008 138 1102 176 1058 b 48 915 155 957 102 915 m 375 915 b 294 1008 321 915 283 957 b 411 1102 303 1058 357 1102 b 493 1008 465 1102 503 1058 b 375 915 483 957 429 915 "},"˙":{"ha":448,"x_min":0,"x_max":0,"o":"m 203 913 b 110 1020 140 913 98 962 b 245 1129 121 1078 182 1129 b 340 1021 309 1129 351 1078 b 203 913 328 961 266 913 "},"`":{"ha":457,"x_min":0,"x_max":0,"o":"m 22 1133 l 250 1133 l 321 904 l 139 904 "},"´":{"ha":534,"x_min":0,"x_max":0,"o":"m -33 904 l 128 1133 l 355 1133 l 150 904 "},"˝":{"ha":462,"x_min":0,"x_max":0,"o":"m 105 1133 l 308 1133 l 130 904 l -33 904 m 414 1133 l 642 1133 l 401 904 l 229 904 "},"ˆ":{"ha":456,"x_min":0,"x_max":0,"o":"m 200 1112 l 349 1112 l 524 913 l 330 913 l 264 996 l 168 913 l -50 913 "},"ˇ":{"ha":456,"x_min":0,"x_max":0,"o":"m 274 913 l 125 913 l -50 1112 l 145 1112 l 210 1029 l 307 1112 l 524 1112 "},"˘":{"ha":458,"x_min":0,"x_max":0,"o":"m 220 909 b 33 1114 90 909 12 1003 l 163 1114 b 236 1023 153 1062 186 1023 b 340 1114 288 1023 330 1060 l 471 1114 b 220 909 448 990 351 909 "},"˚":{"ha":439,"x_min":0,"x_max":0,"o":"m 146 878 b 8 1037 52 878 -7 949 b 200 1196 24 1127 107 1196 b 336 1037 290 1196 352 1128 b 146 878 321 950 241 878 m 161 978 b 233 1036 195 978 227 1003 b 184 1095 239 1068 218 1095 b 112 1036 150 1095 118 1069 b 161 978 106 1004 127 978 "},"˜":{"ha":561,"x_min":0,"x_max":0,"o":"m -10 961 b 216 1143 45 1103 139 1143 b 415 1055 330 1143 355 1055 b 502 1139 453 1055 481 1093 l 626 1099 b 399 917 568 954 473 917 b 201 1005 286 917 261 1005 b 115 920 162 1005 134 967 "},"¯":{"ha":437,"x_min":0,"x_max":0,"o":"m 16 1078 l 461 1078 l 435 942 l -10 942 "},"¸":{"ha":407,"x_min":0,"x_max":0,"o":"m 22 -233 b 209 -180 154 -233 205 -210 b 169 -149 210 -169 205 -149 b 136 -154 160 -149 149 -151 l 107 -113 l 234 28 l 363 28 l 281 -59 b 298 -58 288 -59 292 -58 b 395 -174 359 -58 401 -109 b 77 -389 385 -286 239 -391 "},"˛":{"ha":451,"x_min":0,"x_max":0,"o":"m 378 -372 b 248 -387 330 -382 287 -387 b 30 -218 106 -387 30 -323 b 235 23 30 -101 123 -7 l 366 0 b 232 -157 272 -69 232 -111 b 271 -201 232 -180 243 -201 b 352 -189 286 -201 317 -197 l 378 -372 "}}}
